<svg width="17" height="19" viewBox="0 0 17 19" fill="none" xmlns="http://www.w3.org/2000/svg">
<path d="M15.625 7.91667C15.625 13.4583 8.5 18.2083 8.5 18.2083C8.5 18.2083 1.375 13.4583 1.375 7.91667C1.375 6.027 2.12567 4.21473 3.46186 2.87854C4.79806 1.54234 6.61033 0.791672 8.5 0.791672C10.3897 0.791672 12.2019 1.54234 13.5381 2.87854C14.8743 4.21473 15.625 6.027 15.625 7.91667Z" stroke="#9095A9" stroke-width="1.6" stroke-linecap="round" stroke-linejoin="round"/>
<path d="M8.5 10.2917C9.81168 10.2917 10.875 9.22835 10.875 7.91667C10.875 6.605 9.81168 5.54167 8.5 5.54167C7.18832 5.54167 6.125 6.605 6.125 7.91667C6.125 9.22835 7.18832 10.2917 8.5 10.2917Z" stroke="#9095A9" stroke-width="1.6" stroke-linecap="round" stroke-linejoin="round"/>
</svg>
