<svg width="207" height="48" viewBox="0 0 207 48" fill="none" xmlns="http://www.w3.org/2000/svg">
<path d="M33.6719 36C34.2865 36 34.8802 35.8542 35.4531 35.5625C36.026 35.2708 36.5781 34.8646 37.1094 34.3438C37.6406 33.8229 38.1406 33.2031 38.6094 32.4844C39.0885 31.7656 39.5417 30.9844 39.9688 30.1406V29.4062C39.9688 28.1042 40.0156 26.7188 40.1094 25.25C40.2135 23.7708 40.3594 22.3021 40.5469 20.8438C40.7344 19.3854 40.9635 17.9896 41.2344 16.6562C41.5052 15.3229 41.8073 14.1458 42.1406 13.125C42.4844 12.1042 42.8594 11.2917 43.2656 10.6875C43.6719 10.0729 44.099 9.76562 44.5469 9.76562C44.8698 9.76562 45.1094 9.93229 45.2656 10.2656C45.4219 10.599 45.5 11.125 45.5 11.8438C45.5 12.5833 45.4323 13.5208 45.2969 14.6562C45.1719 15.7917 44.9792 17.0417 44.7188 18.4062C44.4583 19.7604 44.1302 21.1979 43.7344 22.7188C43.3385 24.2292 42.875 25.7344 42.3438 27.2344V28.2188C42.3438 30.1875 42.4948 31.6823 42.7969 32.7031C43.1094 33.724 43.6406 34.2344 44.3906 34.2344C44.6823 34.2344 44.9583 34.1406 45.2188 33.9531C45.4792 33.7656 45.7448 33.474 46.0156 33.0781C46.2865 32.6823 46.5833 32.1719 46.9062 31.5469C47.2396 30.9115 47.625 30.1562 48.0625 29.2812L48.2344 28.9531L48.8594 29.4375L48.7031 29.7656C48.1823 30.8073 47.7188 31.7188 47.3125 32.5C46.9062 33.2708 46.5052 33.9167 46.1094 34.4375C45.724 34.9583 45.3177 35.349 44.8906 35.6094C44.4635 35.8698 43.974 36 43.4219 36C42.3802 36 41.5885 35.6146 41.0469 34.8438C40.5156 34.0625 40.1771 32.9427 40.0312 31.4844C39.6042 32.2656 39.1458 32.9844 38.6562 33.6406C38.1771 34.2865 37.6615 34.8438 37.1094 35.3125C36.5677 35.7812 35.9948 36.1458 35.3906 36.4062C34.7969 36.6667 34.1667 36.7969 33.5 36.7969C32.8229 36.7969 32.1667 36.6771 31.5312 36.4375C30.8958 36.1979 30.3333 35.8333 29.8438 35.3438C29.3542 34.8438 28.9635 34.2135 28.6719 33.4531C28.3802 32.6823 28.2344 31.7708 28.2344 30.7188C28.2344 29.5729 28.349 28.4427 28.5781 27.3281C28.8177 26.2135 29.1146 25.125 29.4688 24.0625C29.8333 22.9896 30.2188 21.9479 30.625 20.9375C31.0417 19.9271 31.4271 18.9583 31.7812 18.0312C32.1458 17.0938 32.4427 16.2031 32.6719 15.3594C32.9115 14.5052 33.0312 13.7031 33.0312 12.9531C33.0312 12.5052 32.9844 12.1302 32.8906 11.8281C32.7969 11.5156 32.6615 11.2656 32.4844 11.0781C32.3177 10.8906 32.1146 10.7604 31.875 10.6875C31.6458 10.6042 31.3906 10.5625 31.1094 10.5625C30.3385 10.5625 29.5833 10.7396 28.8438 11.0938C28.1146 11.4479 27.4219 11.9219 26.7656 12.5156C26.1198 13.1094 25.5208 13.7917 24.9688 14.5625C24.4271 15.3333 23.9583 16.1406 23.5625 16.9844C23.1667 17.8281 22.8594 18.6771 22.6406 19.5312C22.4219 20.375 22.3125 21.1719 22.3125 21.9219C22.3125 22.724 22.4635 23.3229 22.7656 23.7188C23.0677 24.1146 23.5 24.3125 24.0625 24.3125C24.4688 24.3125 24.8802 24.1927 25.2969 23.9531C25.7135 23.7031 26.1146 23.3594 26.5 22.9219C26.8958 22.4844 27.2656 21.9635 27.6094 21.3594C27.9635 20.7552 28.276 20.0885 28.5469 19.3594L29.1875 19.6875C28.9896 20.1667 28.7188 20.7188 28.375 21.3438C28.0417 21.9688 27.6406 22.5625 27.1719 23.125C26.7031 23.6875 26.1667 24.1615 25.5625 24.5469C24.9688 24.9323 24.3125 25.125 23.5938 25.125C23.1562 25.125 22.75 25.0573 22.375 24.9219C22 24.776 21.6771 24.5625 21.4062 24.2812C21.1354 24 20.9271 23.651 20.7812 23.2344C20.625 22.8177 20.5469 22.3281 20.5469 21.7656C20.5469 20.8281 20.7083 19.8802 21.0312 18.9219C21.3438 17.9635 21.7708 17.0417 22.3125 16.1562C22.8542 15.2604 23.4896 14.4271 24.2188 13.6562C24.9479 12.875 25.7188 12.1979 26.5312 11.625C27.3542 11.0521 28.1979 10.599 29.0625 10.2656C29.9271 9.93229 30.7708 9.76562 31.5938 9.76562C32.0938 9.76562 32.5469 9.84896 32.9531 10.0156C33.3698 10.1719 33.724 10.4115 34.0156 10.7344C34.3177 11.0469 34.5469 11.4427 34.7031 11.9219C34.8698 12.401 34.9531 12.9583 34.9531 13.5938C34.9531 14.3646 34.8385 15.2344 34.6094 16.2031C34.3906 17.1719 34.1146 18.1927 33.7812 19.2656C33.4583 20.3281 33.099 21.4271 32.7031 22.5625C32.3177 23.6875 31.9583 24.8073 31.625 25.9219C31.3021 27.026 31.026 28.099 30.7969 29.1406C30.5781 30.1719 30.4688 31.125 30.4688 32C30.4688 32.8542 30.5781 33.5469 30.7969 34.0781C31.026 34.599 31.3021 35.0052 31.625 35.2969C31.9479 35.5781 32.2917 35.7656 32.6562 35.8594C33.0312 35.9531 33.3698 36 33.6719 36ZM44.0625 11.2031C43.9167 11.2031 43.7812 11.4115 43.6562 11.8281C43.5312 12.2344 43.4115 12.7865 43.2969 13.4844C43.1927 14.1719 43.0938 14.974 43 15.8906C42.9062 16.7969 42.8177 17.75 42.7344 18.75C42.6615 19.75 42.599 20.7656 42.5469 21.7969C42.4948 22.8177 42.4479 23.7865 42.4062 24.7031C42.75 23.526 43.0521 22.3594 43.3125 21.2031C43.5729 20.0365 43.7917 18.9323 43.9688 17.8906C44.1562 16.8385 44.2917 15.8802 44.375 15.0156C44.4688 14.1406 44.5156 13.4115 44.5156 12.8281C44.5156 12.3177 44.474 11.9219 44.3906 11.6406C44.3177 11.349 44.2083 11.2031 44.0625 11.2031ZM54.2656 24.2812C53.974 24.2812 53.6458 24.4115 53.2812 24.6719C52.9271 24.9323 52.5677 25.2708 52.2031 25.6875C51.8385 26.0938 51.4844 26.5521 51.1406 27.0625C50.8073 27.5729 50.5156 28.0781 50.2656 28.5781C50.2344 29.4948 50.2031 30.4948 50.1719 31.5781C50.151 32.6615 50.1406 33.8177 50.1406 35.0469C50.1406 35.2031 50.0677 35.3438 49.9219 35.4688C49.7865 35.5833 49.625 35.6823 49.4375 35.7656C49.25 35.8385 49.0573 35.8958 48.8594 35.9375C48.6615 35.9792 48.5 36 48.375 36C48.2188 36 48.0729 35.9531 47.9375 35.8594C47.8021 35.7656 47.7344 35.5573 47.7344 35.2344C47.7344 35.0781 47.75 34.8854 47.7812 34.6562C47.8125 34.4167 47.8542 34.1615 47.9062 33.8906C47.9479 33.6198 48 33.3438 48.0625 33.0625C48.1146 32.7708 48.1667 32.5 48.2188 32.25V24.6094C48.2188 24.401 48.224 24.2396 48.2344 24.125C48.2344 24 48.25 23.9062 48.2812 23.8438C48.3438 23.6979 48.4531 23.5833 48.6094 23.5C48.7656 23.4167 48.9323 23.3542 49.1094 23.3125C49.2865 23.2604 49.4583 23.2292 49.625 23.2188C49.7917 23.2083 49.9219 23.2031 50.0156 23.2031C50.1927 23.2031 50.3125 23.25 50.375 23.3438C50.4479 23.4375 50.4844 23.6042 50.4844 23.8438C50.4844 23.8125 50.4583 24.0677 50.4062 24.6094C50.3646 25.151 50.3281 25.9271 50.2969 26.9375C50.6094 26.4479 50.9479 25.9792 51.3125 25.5312C51.6771 25.0833 52.0573 24.6875 52.4531 24.3438C52.849 24 53.2552 23.724 53.6719 23.5156C54.099 23.3073 54.5312 23.2031 54.9688 23.2031C55.75 23.2031 56.3229 23.4531 56.6875 23.9531C57.0521 24.4427 57.2344 25.1094 57.2344 25.9531C57.2344 26.4844 57.1979 27.0781 57.125 27.7344C57.0625 28.3802 56.9844 29.0417 56.8906 29.7188C56.8073 30.3854 56.7292 31.0417 56.6562 31.6875C56.5938 32.3229 56.5625 32.9062 56.5625 33.4375C56.5625 34.125 56.776 34.4688 57.2031 34.4688C57.3385 34.4688 57.4948 34.401 57.6719 34.2656C57.8594 34.1198 58.0885 33.8542 58.3594 33.4688C58.6406 33.0833 58.974 32.5573 59.3594 31.8906C59.7448 31.2135 60.2031 30.3438 60.7344 29.2812L60.8906 28.9531L61.5312 29.4375L61.375 29.7656C60.75 31.0156 60.1927 32.0417 59.7031 32.8438C59.224 33.6458 58.7865 34.2812 58.3906 34.75C57.9948 35.2188 57.625 35.5469 57.2812 35.7344C56.9375 35.9115 56.5938 36 56.25 36C56.0312 36 55.8125 35.9688 55.5938 35.9062C55.375 35.8438 55.1823 35.7344 55.0156 35.5781C54.849 35.4219 54.7135 35.2135 54.6094 34.9531C54.5052 34.6823 54.4531 34.3385 54.4531 33.9219C54.4531 33.2969 54.4948 32.5938 54.5781 31.8125C54.6615 31.0312 54.7552 30.25 54.8594 29.4688C54.9635 28.6875 55.0573 27.9531 55.1406 27.2656C55.224 26.5677 55.2656 26 55.2656 25.5625C55.2656 25.1771 55.1823 24.8698 55.0156 24.6406C54.849 24.401 54.599 24.2812 54.2656 24.2812ZM61.7031 29.125L61.5469 29.4375L61.3906 29.7656L60.75 29.2812L60.9062 28.9531C61.1667 28.4219 61.3802 27.8906 61.5469 27.3594C61.724 26.8177 61.8646 26.3125 61.9688 25.8438C62.0833 25.375 62.1771 24.9635 62.25 24.6094C62.3229 24.2552 62.3958 24 62.4688 23.8438C62.5312 23.7188 62.6198 23.6198 62.7344 23.5469C62.8594 23.4635 62.9844 23.3958 63.1094 23.3438C63.2448 23.2917 63.3698 23.2552 63.4844 23.2344C63.6094 23.2135 63.6979 23.2031 63.75 23.2031C63.9792 23.2031 64.1302 23.25 64.2031 23.3438C64.2865 23.4375 64.3281 23.6042 64.3281 23.8438C64.3281 23.9583 64.3021 24.2448 64.25 24.7031C64.2083 25.151 64.1562 25.7188 64.0938 26.4062C64.0417 27.0833 63.9896 27.849 63.9375 28.7031C63.8958 29.5469 63.875 30.4219 63.875 31.3281C63.875 31.9844 63.9062 32.5052 63.9688 32.8906C64.0312 33.2656 64.1094 33.5469 64.2031 33.7344C64.3073 33.9219 64.4167 34.0417 64.5312 34.0938C64.6562 34.1458 64.7812 34.1719 64.9062 34.1719C65.0729 34.1719 65.2604 34.099 65.4688 33.9531C65.6771 33.8073 65.9219 33.5521 66.2031 33.1875C66.4844 32.8125 66.8073 32.3125 67.1719 31.6875C67.5365 31.0521 67.9635 30.25 68.4531 29.2812L68.625 28.9531L69.2656 29.4375L69.0938 29.7656C68.6979 30.5365 68.3021 31.2969 67.9062 32.0469C67.5208 32.7969 67.125 33.4635 66.7188 34.0469C66.3229 34.6302 65.9219 35.1042 65.5156 35.4688C65.1094 35.8229 64.7031 36 64.2969 36C63.8698 36 63.5 35.9167 63.1875 35.75C62.8854 35.5729 62.6302 35.2865 62.4219 34.8906C62.224 34.4948 62.0729 33.974 61.9688 33.3281C61.875 32.6719 61.8281 31.8646 61.8281 30.9062C61.8281 30.6354 61.8281 30.3542 61.8281 30.0625C61.8281 29.7604 61.8385 29.4479 61.8594 29.125H61.7031ZM64.9062 20C64.9062 20.3646 64.7812 20.6719 64.5312 20.9219C64.2917 21.1615 63.9896 21.2812 63.625 21.2812C63.2708 21.2812 62.9688 21.1615 62.7188 20.9219C62.4688 20.6719 62.3438 20.3646 62.3438 20C62.3438 19.6458 62.4688 19.3438 62.7188 19.0938C62.9688 18.8438 63.2708 18.7188 63.625 18.7188C63.9896 18.7188 64.2917 18.8438 64.5312 19.0938C64.7812 19.3438 64.9062 19.6458 64.9062 20ZM73.7188 24.3125C73.4167 24.3125 73.125 24.4219 72.8438 24.6406C72.5729 24.849 72.3125 25.1406 72.0625 25.5156C71.8125 25.8802 71.5677 26.3125 71.3281 26.8125C71.099 27.3021 70.8698 27.8281 70.6406 28.3906V28.5781C70.6094 29.4948 70.5781 30.4688 70.5469 31.5C70.526 32.5312 70.5156 33.6562 70.5156 34.875C70.5156 35.0833 70.4427 35.2604 70.2969 35.4062C70.1615 35.5417 70 35.6562 69.8125 35.75C69.625 35.8333 69.4323 35.8958 69.2344 35.9375C69.0365 35.9792 68.875 36 68.75 36C68.5938 36 68.4479 35.9531 68.3125 35.8594C68.1771 35.7656 68.1094 35.5573 68.1094 35.2344C68.1094 35.0781 68.125 34.8854 68.1562 34.6562C68.1875 34.4167 68.2292 34.1615 68.2812 33.8906C68.3229 33.6198 68.375 33.3438 68.4375 33.0625C68.4896 32.7708 68.5417 32.5 68.5938 32.25C68.5938 31.3646 68.5938 30.5677 68.5938 29.8594C68.5833 29.151 68.5781 28.5208 68.5781 27.9688C68.5781 27.4167 68.5781 26.9323 68.5781 26.5156C68.5677 26.099 68.5625 25.7396 68.5625 25.4375C68.5625 24.9375 68.5729 24.5729 68.5938 24.3438C68.6042 24.1042 68.625 23.9375 68.6562 23.8438C68.7083 23.6979 68.8021 23.5833 68.9375 23.5C69.0833 23.4167 69.2344 23.3542 69.3906 23.3125C69.5469 23.2604 69.7031 23.2292 69.8594 23.2188C70.0156 23.2083 70.1354 23.2031 70.2188 23.2031C70.4167 23.2031 70.5469 23.2604 70.6094 23.375C70.6719 23.4896 70.7031 23.6667 70.7031 23.9062C70.7031 24.4479 70.7031 24.9375 70.7031 25.375C70.7031 25.8125 70.6927 26.25 70.6719 26.6875C70.8698 26.2188 71.099 25.776 71.3594 25.3594C71.6302 24.9323 71.9271 24.5625 72.25 24.25C72.5729 23.9271 72.9115 23.6719 73.2656 23.4844C73.6302 23.2969 74.0052 23.2031 74.3906 23.2031C74.8594 23.2031 75.2448 23.3021 75.5469 23.5C75.8594 23.6875 76.1042 23.9531 76.2812 24.2969C76.4688 24.6406 76.6042 25.0469 76.6875 25.5156C76.7812 25.974 76.8438 26.474 76.875 27.0156C77.1667 26.4844 77.4792 25.9896 77.8125 25.5312C78.1562 25.0625 78.5156 24.6562 78.8906 24.3125C79.276 23.9688 79.6771 23.6979 80.0938 23.5C80.5208 23.3021 80.9635 23.2031 81.4219 23.2031C82.2135 23.2031 82.7917 23.4531 83.1562 23.9531C83.5208 24.4427 83.7031 25.1094 83.7031 25.9531C83.7031 26.4844 83.6615 27.0781 83.5781 27.7344C83.4948 28.3906 83.4062 29.0573 83.3125 29.7344C83.2188 30.401 83.1302 31.0573 83.0469 31.7031C82.9635 32.349 82.9219 32.9375 82.9219 33.4688C82.9219 34.1146 83.0833 34.4375 83.4062 34.4375C83.5729 34.4375 83.7552 34.3385 83.9531 34.1406C84.151 33.9323 84.375 33.6198 84.625 33.2031C84.8854 32.776 85.1823 32.2396 85.5156 31.5938C85.8594 30.9479 86.2552 30.1771 86.7031 29.2812L86.8594 28.9531L87.5 29.4375L87.3438 29.7656C86.7292 30.9948 86.2031 32.0104 85.7656 32.8125C85.3385 33.6146 84.9531 34.2552 84.6094 34.7344C84.2656 35.2031 83.9375 35.5312 83.625 35.7188C83.3229 35.9062 82.9844 36 82.6094 36C82.3906 36 82.1771 35.9688 81.9688 35.9062C81.7604 35.8438 81.5781 35.7344 81.4219 35.5781C81.2656 35.4219 81.1406 35.2135 81.0469 34.9531C80.9531 34.6823 80.9062 34.3385 80.9062 33.9219C80.9062 33.2969 80.9479 32.5938 81.0312 31.8125C81.1146 31.0312 81.2083 30.25 81.3125 29.4688C81.4167 28.6875 81.5104 27.9531 81.5938 27.2656C81.6771 26.5677 81.7188 26 81.7188 25.5625C81.7188 25.1771 81.6354 24.8698 81.4688 24.6406C81.3021 24.401 81.0521 24.2812 80.7188 24.2812C80.3854 24.2812 80.0365 24.4115 79.6719 24.6719C79.3177 24.9323 78.9688 25.2708 78.625 25.6875C78.2917 26.0938 77.974 26.5521 77.6719 27.0625C77.3802 27.5729 77.125 28.0781 76.9062 28.5781C76.9062 29.6719 76.8958 30.6302 76.875 31.4531C76.8542 32.2656 76.8229 32.9531 76.7812 33.5156C76.75 34.0781 76.7031 34.526 76.6406 34.8594C76.5781 35.1823 76.5104 35.401 76.4375 35.5156C76.3854 35.5885 76.2969 35.6562 76.1719 35.7188C76.0469 35.7812 75.9062 35.8333 75.75 35.875C75.6042 35.9167 75.4583 35.9479 75.3125 35.9688C75.1771 35.9896 75.0729 36 75 36C74.8333 36 74.6875 35.9531 74.5625 35.8594C74.4479 35.7552 74.3906 35.5573 74.3906 35.2656C74.3906 35.1302 74.401 34.9479 74.4219 34.7188C74.4531 34.4896 74.4896 34.2344 74.5312 33.9531C74.5729 33.6719 74.6198 33.3698 74.6719 33.0469C74.724 32.724 74.776 32.3958 74.8281 32.0625C74.8385 31.75 74.849 31.401 74.8594 31.0156C74.8698 30.6302 74.8802 30.25 74.8906 29.875C74.901 29.4896 74.9062 29.125 74.9062 28.7812C74.9167 28.4271 74.9219 28.125 74.9219 27.875C74.9219 27.3438 74.9062 26.8594 74.875 26.4219C74.8438 25.9844 74.7812 25.6094 74.6875 25.2969C74.6042 24.9844 74.4844 24.7448 74.3281 24.5781C74.1719 24.401 73.9688 24.3125 73.7188 24.3125ZM99.9688 29.4375L99.7969 29.7656C99.4427 30.474 98.9688 31.0417 98.375 31.4688C97.7917 31.8854 97.1562 32.1562 96.4688 32.2812C96.2812 32.8125 96.0365 33.3073 95.7344 33.7656C95.4427 34.2135 95.1042 34.6042 94.7188 34.9375C94.3438 35.2708 93.9167 35.5312 93.4375 35.7188C92.9688 35.9062 92.4583 36 91.9062 36C91.1042 36 90.3802 35.8333 89.7344 35.5C89.099 35.1562 88.5573 34.6979 88.1094 34.125C87.6615 33.5417 87.3177 32.8646 87.0781 32.0938C86.8385 31.3125 86.7188 30.4792 86.7188 29.5938C86.7188 28.8229 86.8073 28.125 86.9844 27.5C87.1615 26.8646 87.3854 26.3021 87.6562 25.8125C87.9271 25.3125 88.2292 24.8802 88.5625 24.5156C88.8958 24.1406 89.224 23.8333 89.5469 23.5938C89.8698 23.3542 90.1615 23.1771 90.4219 23.0625C90.6927 22.9375 90.8958 22.875 91.0312 22.875L91.2344 23.4219C90.8073 23.7344 90.4271 24.1719 90.0938 24.7344C89.8021 25.2135 89.5365 25.849 89.2969 26.6406C89.0677 27.4323 88.9531 28.4167 88.9531 29.5938C88.9531 30.3125 89.0208 31.0104 89.1562 31.6875C89.2917 32.3646 89.4896 32.9635 89.75 33.4844C90.0104 34.0052 90.3281 34.4219 90.7031 34.7344C91.0885 35.0469 91.5208 35.2031 92 35.2031C92.6562 35.2031 93.1979 34.9427 93.625 34.4219C94.0625 33.8906 94.3854 33.1667 94.5938 32.25C94.0521 32.1354 93.5365 31.9219 93.0469 31.6094C92.5573 31.2969 92.125 30.9115 91.75 30.4531C91.375 29.9844 91.0729 29.4479 90.8438 28.8438C90.625 28.2396 90.5156 27.5833 90.5156 26.875C90.5156 26.2917 90.5885 25.7812 90.7344 25.3438C90.8906 24.8958 91.0938 24.526 91.3438 24.2344C91.5938 23.9323 91.8802 23.7083 92.2031 23.5625C92.5365 23.4062 92.8854 23.3281 93.25 23.3281C93.6771 23.3281 94.1146 23.4531 94.5625 23.7031C95.0104 23.9427 95.4167 24.3073 95.7812 24.7969C96.1458 25.276 96.4427 25.8802 96.6719 26.6094C96.901 27.3385 97.0156 28.1875 97.0156 29.1562C97.0156 29.5208 96.9948 29.8802 96.9531 30.2344C96.9115 30.5885 96.849 30.9323 96.7656 31.2656C97.2656 31.1198 97.7188 30.8854 98.125 30.5625C98.5417 30.2396 98.8854 29.8125 99.1562 29.2812L99.3281 28.9531L99.9688 29.4375ZM91.5469 26.75C91.5469 27.3646 91.6302 27.9323 91.7969 28.4531C91.974 28.9635 92.2083 29.4167 92.5 29.8125C92.7917 30.1979 93.1302 30.5208 93.5156 30.7812C93.901 31.0417 94.3125 31.224 94.75 31.3281C94.8021 31.0365 94.8333 30.7344 94.8438 30.4219C94.8646 30.099 94.875 29.7708 94.875 29.4375C94.875 28.6979 94.8177 28.0312 94.7031 27.4375C94.5885 26.8333 94.4375 26.3229 94.25 25.9062C94.0625 25.4792 93.8438 25.151 93.5938 24.9219C93.3438 24.6927 93.0885 24.5781 92.8281 24.5781C92.474 24.5781 92.1719 24.7708 91.9219 25.1562C91.6719 25.5312 91.5469 26.0625 91.5469 26.75ZM101.969 24.1562C101.969 24.5625 101.932 25.0781 101.859 25.7031C101.797 26.3281 101.724 27.026 101.641 27.7969C101.568 28.5573 101.495 29.375 101.422 30.25C101.359 31.125 101.328 32.0156 101.328 32.9219C101.328 33.651 101.448 34.1562 101.688 34.4375C101.927 34.7083 102.255 34.8438 102.672 34.8438C102.964 34.8438 103.26 34.7656 103.562 34.6094C103.865 34.4531 104.151 34.2396 104.422 33.9688C104.703 33.6979 104.964 33.375 105.203 33C105.443 32.625 105.656 32.2188 105.844 31.7812C105.25 31.4167 104.75 30.8229 104.344 30C103.938 29.1667 103.734 28.1146 103.734 26.8438C103.734 26.2083 103.802 25.6719 103.938 25.2344C104.073 24.7865 104.25 24.4219 104.469 24.1406C104.698 23.8594 104.953 23.6562 105.234 23.5312C105.516 23.3958 105.802 23.3281 106.094 23.3281C106.354 23.3281 106.609 23.3802 106.859 23.4844C107.109 23.5885 107.328 23.7604 107.516 24C107.703 24.2292 107.854 24.5365 107.969 24.9219C108.083 25.3073 108.141 25.7812 108.141 26.3438C108.141 27.0521 108.052 27.849 107.875 28.7344C107.708 29.6094 107.458 30.4844 107.125 31.3594C107.177 31.3594 107.229 31.3646 107.281 31.375C107.333 31.3854 107.385 31.3906 107.438 31.3906C108.021 31.3906 108.516 31.2031 108.922 30.8281C109.339 30.4427 109.708 29.9271 110.031 29.2812L110.188 28.9531L110.828 29.4375L110.672 29.7656C110.255 30.5781 109.75 31.1875 109.156 31.5938C108.573 31.9896 107.969 32.1875 107.344 32.1875C107.25 32.1875 107.146 32.1823 107.031 32.1719C106.927 32.1615 106.849 32.1458 106.797 32.125C106.557 32.6562 106.276 33.1562 105.953 33.625C105.63 34.0938 105.271 34.5052 104.875 34.8594C104.49 35.2031 104.062 35.4792 103.594 35.6875C103.135 35.8958 102.646 36 102.125 36C101.698 36 101.302 35.9375 100.938 35.8125C100.573 35.6771 100.25 35.4375 99.9688 35.0938C99.6979 34.7396 99.4844 34.2656 99.3281 33.6719C99.1719 33.0677 99.0938 32.2969 99.0938 31.3594C99.0938 30.9427 99.1042 30.4792 99.125 29.9688C99.1458 29.4479 99.1771 28.9219 99.2188 28.3906C99.25 27.8594 99.2917 27.3385 99.3438 26.8281C99.3854 26.3177 99.4323 25.8542 99.4844 25.4375C99.5365 25.0104 99.5885 24.6562 99.6406 24.375C99.6927 24.0833 99.7448 23.8958 99.7969 23.8125C99.9219 23.5833 100.13 23.4271 100.422 23.3438C100.714 23.25 100.995 23.2031 101.266 23.2031C101.453 23.2031 101.615 23.2708 101.75 23.4062C101.896 23.5417 101.969 23.7917 101.969 24.1562ZM104.594 26.9062C104.594 27.9062 104.74 28.75 105.031 29.4375C105.333 30.1146 105.708 30.6146 106.156 30.9375C106.385 30.2812 106.562 29.6042 106.688 28.9062C106.823 28.1979 106.891 27.5208 106.891 26.875C106.891 26.4583 106.854 26.1094 106.781 25.8281C106.719 25.5365 106.635 25.3021 106.531 25.125C106.427 24.9479 106.302 24.8229 106.156 24.75C106.021 24.6771 105.885 24.6406 105.75 24.6406C105.604 24.6406 105.464 24.6823 105.328 24.7656C105.193 24.8385 105.068 24.9635 104.953 25.1406C104.849 25.3177 104.76 25.5521 104.688 25.8438C104.625 26.1354 104.594 26.4896 104.594 26.9062ZM114.797 34.2344C115.161 34.2344 115.531 34.1406 115.906 33.9531C116.292 33.7656 116.677 33.474 117.062 33.0781C117.458 32.6823 117.865 32.1719 118.281 31.5469C118.698 30.9115 119.125 30.1562 119.562 29.2812L119.719 28.9531L120.359 29.4375L120.203 29.7656C119.641 30.8802 119.078 31.8333 118.516 32.625C117.964 33.4167 117.417 34.0625 116.875 34.5625C116.344 35.0625 115.818 35.4271 115.297 35.6562C114.776 35.8854 114.276 36 113.797 36C113.12 36 112.516 35.8594 111.984 35.5781C111.453 35.2969 111.005 34.9167 110.641 34.4375C110.276 33.9479 110 33.3854 109.812 32.75C109.615 32.1042 109.516 31.4271 109.516 30.7188C109.516 29.5938 109.672 28.5729 109.984 27.6562C110.286 26.7292 110.693 25.9375 111.203 25.2812C111.724 24.625 112.312 24.1146 112.969 23.75C113.625 23.3854 114.307 23.2031 115.016 23.2031C115.734 23.2031 116.281 23.3854 116.656 23.75C117.042 24.1146 117.234 24.5729 117.234 25.125C117.234 25.6562 117.083 26.1562 116.781 26.625C116.479 27.0833 116.068 27.5365 115.547 27.9844C115.036 28.4219 114.443 28.8594 113.766 29.2969C113.089 29.724 112.375 30.1667 111.625 30.625C111.698 31.1667 111.823 31.6615 112 32.1094C112.177 32.5469 112.401 32.9271 112.672 33.25C112.943 33.5625 113.255 33.8073 113.609 33.9844C113.964 34.151 114.359 34.2344 114.797 34.2344ZM115.281 25.5938C115.281 25.1771 115.167 24.849 114.938 24.6094C114.719 24.3698 114.448 24.25 114.125 24.25C113.854 24.25 113.568 24.349 113.266 24.5469C112.964 24.7344 112.688 25.0417 112.438 25.4688C112.188 25.8854 111.979 26.4219 111.812 27.0781C111.646 27.7344 111.562 28.5312 111.562 29.4688V29.8281C111.917 29.6406 112.307 29.3958 112.734 29.0938C113.172 28.7812 113.578 28.4375 113.953 28.0625C114.328 27.6875 114.641 27.2917 114.891 26.875C115.151 26.4479 115.281 26.0208 115.281 25.5938ZM122.109 24.125C122.109 26 122.323 27.6354 122.75 29.0312C123.177 30.4271 123.74 31.5885 124.438 32.5156C125.146 33.4427 125.948 34.1406 126.844 34.6094C127.75 35.0677 128.677 35.2969 129.625 35.2969C130.302 35.2969 130.969 35.1719 131.625 34.9219C132.292 34.6719 132.938 34.2969 133.562 33.7969C134.188 33.2969 134.786 32.6719 135.359 31.9219C135.943 31.1719 136.484 30.2917 136.984 29.2812L137.156 28.9531L137.797 29.4375L137.625 29.7656C137.052 30.9219 136.417 31.9375 135.719 32.8125C135.031 33.6875 134.297 34.4219 133.516 35.0156C132.734 35.599 131.922 36.0417 131.078 36.3438C130.245 36.6458 129.391 36.7969 128.516 36.7969C127.766 36.7969 127.021 36.6875 126.281 36.4688C125.552 36.2604 124.854 35.9427 124.188 35.5156C123.531 35.0781 122.917 34.5312 122.344 33.875C121.781 33.2188 121.292 32.4531 120.875 31.5781C120.458 30.6927 120.13 29.6979 119.891 28.5938C119.661 27.4792 119.547 26.2552 119.547 24.9219C119.547 23.1615 119.693 21.5677 119.984 20.1406C120.286 18.7031 120.688 17.4271 121.188 16.3125C121.698 15.1875 122.286 14.2135 122.953 13.3906C123.63 12.5677 124.339 11.8906 125.078 11.3594C125.818 10.8177 126.573 10.4167 127.344 10.1562C128.115 9.89583 128.854 9.76562 129.562 9.76562C130.49 9.76562 131.344 9.92708 132.125 10.25C132.906 10.5625 133.578 11.0104 134.141 11.5938C134.703 12.1667 135.141 12.8698 135.453 13.7031C135.776 14.526 135.938 15.4427 135.938 16.4531C135.938 17.4219 135.786 18.3333 135.484 19.1875C135.193 20.0417 134.797 20.7917 134.297 21.4375C133.807 22.0729 133.24 22.5781 132.594 22.9531C131.958 23.3281 131.292 23.5156 130.594 23.5156C130.125 23.5156 129.688 23.4323 129.281 23.2656C128.875 23.099 128.521 22.8646 128.219 22.5625C127.917 22.2604 127.677 21.8906 127.5 21.4531C127.323 21.0156 127.234 20.5312 127.234 20C127.234 19.4896 127.312 19 127.469 18.5312C127.625 18.0521 127.823 17.6146 128.062 17.2188C128.302 16.8125 128.562 16.4583 128.844 16.1562C129.135 15.8438 129.417 15.599 129.688 15.4219L130.109 15.8438C129.891 16.0938 129.682 16.3646 129.484 16.6562C129.297 16.9375 129.13 17.2448 128.984 17.5781C128.839 17.901 128.724 18.25 128.641 18.625C128.557 19 128.516 19.4062 128.516 19.8438C128.516 20.2917 128.568 20.6927 128.672 21.0469C128.786 21.401 128.938 21.7031 129.125 21.9531C129.323 22.2031 129.547 22.3958 129.797 22.5312C130.047 22.6562 130.312 22.7188 130.594 22.7188C130.979 22.7188 131.365 22.5781 131.75 22.2969C132.135 22.0052 132.479 21.5833 132.781 21.0312C133.083 20.4688 133.328 19.7812 133.516 18.9688C133.703 18.1562 133.797 17.2188 133.797 16.1562C133.797 15.1979 133.688 14.3698 133.469 13.6719C133.26 12.9635 132.969 12.3802 132.594 11.9219C132.219 11.4635 131.776 11.125 131.266 10.9062C130.755 10.6771 130.208 10.5625 129.625 10.5625C129.208 10.5625 128.734 10.6562 128.203 10.8438C127.672 11.0208 127.125 11.3177 126.562 11.7344C126.01 12.151 125.469 12.7031 124.938 13.3906C124.406 14.0677 123.927 14.9115 123.5 15.9219C123.083 16.9219 122.745 18.099 122.484 19.4531C122.234 20.8073 122.109 22.3646 122.109 24.125ZM150.25 29.4375L150.078 29.7656C149.724 30.474 149.25 31.0417 148.656 31.4688C148.073 31.8854 147.438 32.1562 146.75 32.2812C146.562 32.8125 146.318 33.3073 146.016 33.7656C145.724 34.2135 145.385 34.6042 145 34.9375C144.625 35.2708 144.198 35.5312 143.719 35.7188C143.25 35.9062 142.74 36 142.188 36C141.385 36 140.661 35.8333 140.016 35.5C139.38 35.1562 138.839 34.6979 138.391 34.125C137.943 33.5417 137.599 32.8646 137.359 32.0938C137.12 31.3125 137 30.4792 137 29.5938C137 28.8229 137.089 28.125 137.266 27.5C137.443 26.8646 137.667 26.3021 137.938 25.8125C138.208 25.3125 138.51 24.8802 138.844 24.5156C139.177 24.1406 139.505 23.8333 139.828 23.5938C140.151 23.3542 140.443 23.1771 140.703 23.0625C140.974 22.9375 141.177 22.875 141.312 22.875L141.516 23.4219C141.089 23.7344 140.708 24.1719 140.375 24.7344C140.083 25.2135 139.818 25.849 139.578 26.6406C139.349 27.4323 139.234 28.4167 139.234 29.5938C139.234 30.3125 139.302 31.0104 139.438 31.6875C139.573 32.3646 139.771 32.9635 140.031 33.4844C140.292 34.0052 140.609 34.4219 140.984 34.7344C141.37 35.0469 141.802 35.2031 142.281 35.2031C142.938 35.2031 143.479 34.9427 143.906 34.4219C144.344 33.8906 144.667 33.1667 144.875 32.25C144.333 32.1354 143.818 31.9219 143.328 31.6094C142.839 31.2969 142.406 30.9115 142.031 30.4531C141.656 29.9844 141.354 29.4479 141.125 28.8438C140.906 28.2396 140.797 27.5833 140.797 26.875C140.797 26.2917 140.87 25.7812 141.016 25.3438C141.172 24.8958 141.375 24.526 141.625 24.2344C141.875 23.9323 142.161 23.7083 142.484 23.5625C142.818 23.4062 143.167 23.3281 143.531 23.3281C143.958 23.3281 144.396 23.4531 144.844 23.7031C145.292 23.9427 145.698 24.3073 146.062 24.7969C146.427 25.276 146.724 25.8802 146.953 26.6094C147.182 27.3385 147.297 28.1875 147.297 29.1562C147.297 29.5208 147.276 29.8802 147.234 30.2344C147.193 30.5885 147.13 30.9323 147.047 31.2656C147.547 31.1198 148 30.8854 148.406 30.5625C148.823 30.2396 149.167 29.8125 149.438 29.2812L149.609 28.9531L150.25 29.4375ZM141.828 26.75C141.828 27.3646 141.911 27.9323 142.078 28.4531C142.255 28.9635 142.49 29.4167 142.781 29.8125C143.073 30.1979 143.411 30.5208 143.797 30.7812C144.182 31.0417 144.594 31.224 145.031 31.3281C145.083 31.0365 145.115 30.7344 145.125 30.4219C145.146 30.099 145.156 29.7708 145.156 29.4375C145.156 28.6979 145.099 28.0312 144.984 27.4375C144.87 26.8333 144.719 26.3229 144.531 25.9062C144.344 25.4792 144.125 25.151 143.875 24.9219C143.625 24.6927 143.37 24.5781 143.109 24.5781C142.755 24.5781 142.453 24.7708 142.203 25.1562C141.953 25.5312 141.828 26.0625 141.828 26.75ZM155.641 24.2812C155.349 24.2812 155.021 24.4115 154.656 24.6719C154.302 24.9323 153.943 25.2708 153.578 25.6875C153.214 26.0938 152.859 26.5521 152.516 27.0625C152.182 27.5729 151.891 28.0781 151.641 28.5781C151.609 29.4948 151.578 30.4948 151.547 31.5781C151.526 32.6615 151.516 33.8177 151.516 35.0469C151.516 35.2031 151.443 35.3438 151.297 35.4688C151.161 35.5833 151 35.6823 150.812 35.7656C150.625 35.8385 150.432 35.8958 150.234 35.9375C150.036 35.9792 149.875 36 149.75 36C149.594 36 149.448 35.9531 149.312 35.8594C149.177 35.7656 149.109 35.5573 149.109 35.2344C149.109 35.0781 149.125 34.8854 149.156 34.6562C149.188 34.4167 149.229 34.1615 149.281 33.8906C149.323 33.6198 149.375 33.3438 149.438 33.0625C149.49 32.7708 149.542 32.5 149.594 32.25V24.6094C149.594 24.401 149.599 24.2396 149.609 24.125C149.609 24 149.625 23.9062 149.656 23.8438C149.719 23.6979 149.828 23.5833 149.984 23.5C150.141 23.4167 150.307 23.3542 150.484 23.3125C150.661 23.2604 150.833 23.2292 151 23.2188C151.167 23.2083 151.297 23.2031 151.391 23.2031C151.568 23.2031 151.688 23.25 151.75 23.3438C151.823 23.4375 151.859 23.6042 151.859 23.8438C151.859 23.8125 151.833 24.0677 151.781 24.6094C151.74 25.151 151.703 25.9271 151.672 26.9375C151.984 26.4479 152.323 25.9792 152.688 25.5312C153.052 25.0833 153.432 24.6875 153.828 24.3438C154.224 24 154.63 23.724 155.047 23.5156C155.474 23.3073 155.906 23.2031 156.344 23.2031C157.125 23.2031 157.698 23.4531 158.062 23.9531C158.427 24.4427 158.609 25.1094 158.609 25.9531C158.609 26.4844 158.573 27.0781 158.5 27.7344C158.438 28.3802 158.359 29.0417 158.266 29.7188C158.182 30.3854 158.104 31.0417 158.031 31.6875C157.969 32.3229 157.938 32.9062 157.938 33.4375C157.938 34.125 158.151 34.4688 158.578 34.4688C158.714 34.4688 158.87 34.401 159.047 34.2656C159.234 34.1198 159.464 33.8542 159.734 33.4688C160.016 33.0833 160.349 32.5573 160.734 31.8906C161.12 31.2135 161.578 30.3438 162.109 29.2812L162.266 28.9531L162.906 29.4375L162.75 29.7656C162.125 31.0156 161.568 32.0417 161.078 32.8438C160.599 33.6458 160.161 34.2812 159.766 34.75C159.37 35.2188 159 35.5469 158.656 35.7344C158.312 35.9115 157.969 36 157.625 36C157.406 36 157.188 35.9688 156.969 35.9062C156.75 35.8438 156.557 35.7344 156.391 35.5781C156.224 35.4219 156.089 35.2135 155.984 34.9531C155.88 34.6823 155.828 34.3385 155.828 33.9219C155.828 33.2969 155.87 32.5938 155.953 31.8125C156.036 31.0312 156.13 30.25 156.234 29.4688C156.339 28.6875 156.432 27.9531 156.516 27.2656C156.599 26.5677 156.641 26 156.641 25.5625C156.641 25.1771 156.557 24.8698 156.391 24.6406C156.224 24.401 155.974 24.2812 155.641 24.2812ZM168.297 24.2812C168.005 24.2812 167.677 24.4115 167.312 24.6719C166.958 24.9323 166.599 25.2708 166.234 25.6875C165.87 26.0938 165.516 26.5521 165.172 27.0625C164.839 27.5729 164.547 28.0781 164.297 28.5781C164.266 29.4948 164.234 30.4948 164.203 31.5781C164.182 32.6615 164.172 33.8177 164.172 35.0469C164.172 35.2031 164.099 35.3438 163.953 35.4688C163.818 35.5833 163.656 35.6823 163.469 35.7656C163.281 35.8385 163.089 35.8958 162.891 35.9375C162.693 35.9792 162.531 36 162.406 36C162.25 36 162.104 35.9531 161.969 35.8594C161.833 35.7656 161.766 35.5573 161.766 35.2344C161.766 35.0781 161.781 34.8854 161.812 34.6562C161.844 34.4167 161.885 34.1615 161.938 33.8906C161.979 33.6198 162.031 33.3438 162.094 33.0625C162.146 32.7708 162.198 32.5 162.25 32.25V24.6094C162.25 24.401 162.255 24.2396 162.266 24.125C162.266 24 162.281 23.9062 162.312 23.8438C162.375 23.6979 162.484 23.5833 162.641 23.5C162.797 23.4167 162.964 23.3542 163.141 23.3125C163.318 23.2604 163.49 23.2292 163.656 23.2188C163.823 23.2083 163.953 23.2031 164.047 23.2031C164.224 23.2031 164.344 23.25 164.406 23.3438C164.479 23.4375 164.516 23.6042 164.516 23.8438C164.516 23.8125 164.49 24.0677 164.438 24.6094C164.396 25.151 164.359 25.9271 164.328 26.9375C164.641 26.4479 164.979 25.9792 165.344 25.5312C165.708 25.0833 166.089 24.6875 166.484 24.3438C166.88 24 167.286 23.724 167.703 23.5156C168.13 23.3073 168.562 23.2031 169 23.2031C169.781 23.2031 170.354 23.4531 170.719 23.9531C171.083 24.4427 171.266 25.1094 171.266 25.9531C171.266 26.4844 171.229 27.0781 171.156 27.7344C171.094 28.3802 171.016 29.0417 170.922 29.7188C170.839 30.3854 170.76 31.0417 170.688 31.6875C170.625 32.3229 170.594 32.9062 170.594 33.4375C170.594 34.125 170.807 34.4688 171.234 34.4688C171.37 34.4688 171.526 34.401 171.703 34.2656C171.891 34.1198 172.12 33.8542 172.391 33.4688C172.672 33.0833 173.005 32.5573 173.391 31.8906C173.776 31.2135 174.234 30.3438 174.766 29.2812L174.922 28.9531L175.562 29.4375L175.406 29.7656C174.781 31.0156 174.224 32.0417 173.734 32.8438C173.255 33.6458 172.818 34.2812 172.422 34.75C172.026 35.2188 171.656 35.5469 171.312 35.7344C170.969 35.9115 170.625 36 170.281 36C170.062 36 169.844 35.9688 169.625 35.9062C169.406 35.8438 169.214 35.7344 169.047 35.5781C168.88 35.4219 168.745 35.2135 168.641 34.9531C168.536 34.6823 168.484 34.3385 168.484 33.9219C168.484 33.2969 168.526 32.5938 168.609 31.8125C168.693 31.0312 168.786 30.25 168.891 29.4688C168.995 28.6875 169.089 27.9531 169.172 27.2656C169.255 26.5677 169.297 26 169.297 25.5625C169.297 25.1771 169.214 24.8698 169.047 24.6406C168.88 24.401 168.63 24.2812 168.297 24.2812ZM179.547 34.2344C179.911 34.2344 180.281 34.1406 180.656 33.9531C181.042 33.7656 181.427 33.474 181.812 33.0781C182.208 32.6823 182.615 32.1719 183.031 31.5469C183.448 30.9115 183.875 30.1562 184.312 29.2812L184.469 28.9531L185.109 29.4375L184.953 29.7656C184.391 30.8802 183.828 31.8333 183.266 32.625C182.714 33.4167 182.167 34.0625 181.625 34.5625C181.094 35.0625 180.568 35.4271 180.047 35.6562C179.526 35.8854 179.026 36 178.547 36C177.87 36 177.266 35.8594 176.734 35.5781C176.203 35.2969 175.755 34.9167 175.391 34.4375C175.026 33.9479 174.75 33.3854 174.562 32.75C174.365 32.1042 174.266 31.4271 174.266 30.7188C174.266 29.5938 174.422 28.5729 174.734 27.6562C175.036 26.7292 175.443 25.9375 175.953 25.2812C176.474 24.625 177.062 24.1146 177.719 23.75C178.375 23.3854 179.057 23.2031 179.766 23.2031C180.484 23.2031 181.031 23.3854 181.406 23.75C181.792 24.1146 181.984 24.5729 181.984 25.125C181.984 25.6562 181.833 26.1562 181.531 26.625C181.229 27.0833 180.818 27.5365 180.297 27.9844C179.786 28.4219 179.193 28.8594 178.516 29.2969C177.839 29.724 177.125 30.1667 176.375 30.625C176.448 31.1667 176.573 31.6615 176.75 32.1094C176.927 32.5469 177.151 32.9271 177.422 33.25C177.693 33.5625 178.005 33.8073 178.359 33.9844C178.714 34.151 179.109 34.2344 179.547 34.2344ZM180.031 25.5938C180.031 25.1771 179.917 24.849 179.688 24.6094C179.469 24.3698 179.198 24.25 178.875 24.25C178.604 24.25 178.318 24.349 178.016 24.5469C177.714 24.7344 177.438 25.0417 177.188 25.4688C176.938 25.8854 176.729 26.4219 176.562 27.0781C176.396 27.7344 176.312 28.5312 176.312 29.4688V29.8281C176.667 29.6406 177.057 29.3958 177.484 29.0938C177.922 28.7812 178.328 28.4375 178.703 28.0625C179.078 27.6875 179.391 27.2917 179.641 26.875C179.901 26.4479 180.031 26.0208 180.031 25.5938ZM189.75 27.0781C189.875 26.8802 189.979 26.6354 190.062 26.3438C190.156 26.0521 190.203 25.7604 190.203 25.4688C190.203 25.1146 190.115 24.8073 189.938 24.5469C189.76 24.2865 189.443 24.1562 188.984 24.1562C188.682 24.1562 188.375 24.2656 188.062 24.4844C187.75 24.7031 187.458 25.0312 187.188 25.4688C186.927 25.9062 186.714 26.4583 186.547 27.125C186.38 27.7917 186.297 28.5729 186.297 29.4688C186.297 30.1771 186.37 30.8229 186.516 31.4062C186.661 31.9896 186.875 32.4896 187.156 32.9062C187.438 33.3229 187.776 33.651 188.172 33.8906C188.578 34.1198 189.031 34.2344 189.531 34.2344C189.896 34.2344 190.266 34.1406 190.641 33.9531C191.026 33.7656 191.411 33.474 191.797 33.0781C192.193 32.6823 192.599 32.1719 193.016 31.5469C193.432 30.9115 193.859 30.1562 194.297 29.2812L194.453 28.9531L195.094 29.4375L194.938 29.7656C194.375 30.8802 193.812 31.8333 193.25 32.625C192.698 33.4167 192.151 34.0625 191.609 34.5625C191.068 35.0625 190.536 35.4271 190.016 35.6562C189.505 35.8854 189.01 36 188.531 36C187.854 36 187.25 35.8594 186.719 35.5781C186.188 35.2969 185.74 34.9167 185.375 34.4375C185.01 33.9479 184.729 33.3854 184.531 32.75C184.344 32.1042 184.25 31.4271 184.25 30.7188C184.25 29.5938 184.401 28.5729 184.703 27.6562C185.016 26.7292 185.417 25.9375 185.906 25.2812C186.396 24.625 186.948 24.1146 187.562 23.75C188.177 23.3854 188.797 23.2031 189.422 23.2031C189.901 23.2031 190.302 23.2708 190.625 23.4062C190.948 23.5417 191.208 23.7135 191.406 23.9219C191.604 24.1302 191.745 24.3542 191.828 24.5938C191.911 24.8333 191.953 25.0625 191.953 25.2812C191.953 25.5 191.906 25.7292 191.812 25.9688C191.719 26.1979 191.578 26.4167 191.391 26.625C191.214 26.8229 191 27.0052 190.75 27.1719C190.5 27.3281 190.219 27.4427 189.906 27.5156L189.75 27.0781ZM194.406 30.875C194.406 29.7708 194.448 28.6615 194.531 27.5469C194.615 26.4323 194.724 25.3021 194.859 24.1562H193.438L193.609 23.2031H194.984C195.13 22.1406 195.276 21.0781 195.422 20.0156C195.578 18.9427 195.719 17.8698 195.844 16.7969H197.438C197.417 17.026 197.385 17.3594 197.344 17.7969C197.312 18.224 197.271 18.724 197.219 19.2969C197.177 19.8594 197.135 20.4792 197.094 21.1562C197.052 21.8229 197.01 22.5052 196.969 23.2031H200L199.844 24.1562H196.906C196.865 24.75 196.828 25.3333 196.797 25.9062C196.766 26.4792 196.734 27.026 196.703 27.5469C196.682 28.0573 196.667 28.5312 196.656 28.9688C196.646 29.3958 196.641 29.7656 196.641 30.0781C196.641 30.8698 196.661 31.5312 196.703 32.0625C196.755 32.5938 196.828 33.0208 196.922 33.3438C197.026 33.6667 197.151 33.8958 197.297 34.0312C197.453 34.1667 197.63 34.2344 197.828 34.2344C198.089 34.2344 198.375 34.1042 198.688 33.8438C199.01 33.5729 199.344 33.2135 199.688 32.7656C200.031 32.3177 200.38 31.7969 200.734 31.2031C201.089 30.599 201.432 29.9583 201.766 29.2812L201.922 28.9531L202.562 29.4375L202.406 29.7656C201.927 30.7344 201.448 31.6042 200.969 32.375C200.5 33.1458 200.036 33.8021 199.578 34.3438C199.12 34.875 198.672 35.2865 198.234 35.5781C197.797 35.8594 197.375 36 196.969 36C196.562 36 196.198 35.9062 195.875 35.7188C195.562 35.5312 195.297 35.2344 195.078 34.8281C194.859 34.4115 194.693 33.8802 194.578 33.2344C194.464 32.5885 194.406 31.8021 194.406 30.875Z" fill="white"/>
</svg>
