<svg width="179" height="28" viewBox="0 0 179 28" fill="none" xmlns="http://www.w3.org/2000/svg">
<path d="M9.67188 27C10.2865 27 10.8802 26.8542 11.4531 26.5625C12.026 26.2708 12.5781 25.8646 13.1094 25.3438C13.6406 24.8229 14.1406 24.2031 14.6094 23.4844C15.0885 22.7656 15.5417 21.9844 15.9688 21.1406V20.4062C15.9688 19.1042 16.0156 17.7188 16.1094 16.25C16.2135 14.7708 16.3594 13.3021 16.5469 11.8438C16.7344 10.3854 16.9635 8.98958 17.2344 7.65625C17.5052 6.32292 17.8073 5.14583 18.1406 4.125C18.4844 3.10417 18.8594 2.29167 19.2656 1.6875C19.6719 1.07292 20.099 0.765625 20.5469 0.765625C20.8698 0.765625 21.1094 0.932292 21.2656 1.26562C21.4219 1.59896 21.5 2.125 21.5 2.84375C21.5 3.58333 21.4323 4.52083 21.2969 5.65625C21.1719 6.79167 20.9792 8.04167 20.7188 9.40625C20.4583 10.7604 20.1302 12.1979 19.7344 13.7188C19.3385 15.2292 18.875 16.7344 18.3438 18.2344V19.2188C18.3438 21.1875 18.4948 22.6823 18.7969 23.7031C19.1094 24.724 19.6406 25.2344 20.3906 25.2344C20.6823 25.2344 20.9583 25.1406 21.2188 24.9531C21.4792 24.7656 21.7448 24.474 22.0156 24.0781C22.2865 23.6823 22.5833 23.1719 22.9062 22.5469C23.2396 21.9115 23.625 21.1562 24.0625 20.2812L24.2344 19.9531L24.8594 20.4375L24.7031 20.7656C24.1823 21.8073 23.7188 22.7188 23.3125 23.5C22.9062 24.2708 22.5052 24.9167 22.1094 25.4375C21.724 25.9583 21.3177 26.349 20.8906 26.6094C20.4635 26.8698 19.974 27 19.4219 27C18.3802 27 17.5885 26.6146 17.0469 25.8438C16.5156 25.0625 16.1771 23.9427 16.0312 22.4844C15.6042 23.2656 15.1458 23.9844 14.6562 24.6406C14.1771 25.2865 13.6615 25.8438 13.1094 26.3125C12.5677 26.7812 11.9948 27.1458 11.3906 27.4062C10.7969 27.6667 10.1667 27.7969 9.5 27.7969C8.82292 27.7969 8.16667 27.6771 7.53125 27.4375C6.89583 27.1979 6.33333 26.8333 5.84375 26.3438C5.35417 25.8438 4.96354 25.2135 4.67188 24.4531C4.38021 23.6823 4.23438 22.7708 4.23438 21.7188C4.23438 20.5729 4.34896 19.4427 4.57812 18.3281C4.81771 17.2135 5.11458 16.125 5.46875 15.0625C5.83333 13.9896 6.21875 12.9479 6.625 11.9375C7.04167 10.9271 7.42708 9.95833 7.78125 9.03125C8.14583 8.09375 8.44271 7.20312 8.67188 6.35938C8.91146 5.50521 9.03125 4.70312 9.03125 3.95312C9.03125 3.50521 8.98438 3.13021 8.89062 2.82812C8.79688 2.51562 8.66146 2.26562 8.48438 2.07812C8.31771 1.89062 8.11458 1.76042 7.875 1.6875C7.64583 1.60417 7.39062 1.5625 7.10938 1.5625C6.33854 1.5625 5.58333 1.73958 4.84375 2.09375C4.11458 2.44792 3.42188 2.92188 2.76562 3.51562C2.11979 4.10938 1.52083 4.79167 0.96875 5.5625C0.427083 6.33333 -0.0416667 7.14062 -0.4375 7.98438C-0.833333 8.82812 -1.14062 9.67708 -1.35938 10.5312C-1.57812 11.375 -1.6875 12.1719 -1.6875 12.9219C-1.6875 13.724 -1.53646 14.3229 -1.23438 14.7188C-0.932292 15.1146 -0.5 15.3125 0.0625 15.3125C0.46875 15.3125 0.880208 15.1927 1.29688 14.9531C1.71354 14.7031 2.11458 14.3594 2.5 13.9219C2.89583 13.4844 3.26562 12.9635 3.60938 12.3594C3.96354 11.7552 4.27604 11.0885 4.54688 10.3594L5.1875 10.6875C4.98958 11.1667 4.71875 11.7188 4.375 12.3438C4.04167 12.9688 3.64062 13.5625 3.17188 14.125C2.70312 14.6875 2.16667 15.1615 1.5625 15.5469C0.96875 15.9323 0.3125 16.125 -0.40625 16.125C-0.84375 16.125 -1.25 16.0573 -1.625 15.9219C-2 15.776 -2.32292 15.5625 -2.59375 15.2812C-2.86458 15 -3.07292 14.651 -3.21875 14.2344C-3.375 13.8177 -3.45312 13.3281 -3.45312 12.7656C-3.45312 11.8281 -3.29167 10.8802 -2.96875 9.92188C-2.65625 8.96354 -2.22917 8.04167 -1.6875 7.15625C-1.14583 6.26042 -0.510417 5.42708 0.21875 4.65625C0.947917 3.875 1.71875 3.19792 2.53125 2.625C3.35417 2.05208 4.19792 1.59896 5.0625 1.26562C5.92708 0.932292 6.77083 0.765625 7.59375 0.765625C8.09375 0.765625 8.54688 0.848958 8.95312 1.01562C9.36979 1.17188 9.72396 1.41146 10.0156 1.73438C10.3177 2.04688 10.5469 2.44271 10.7031 2.92188C10.8698 3.40104 10.9531 3.95833 10.9531 4.59375C10.9531 5.36458 10.8385 6.23438 10.6094 7.20312C10.3906 8.17188 10.1146 9.19271 9.78125 10.2656C9.45833 11.3281 9.09896 12.4271 8.70312 13.5625C8.31771 14.6875 7.95833 15.8073 7.625 16.9219C7.30208 18.026 7.02604 19.099 6.79688 20.1406C6.57812 21.1719 6.46875 22.125 6.46875 23C6.46875 23.8542 6.57812 24.5469 6.79688 25.0781C7.02604 25.599 7.30208 26.0052 7.625 26.2969C7.94792 26.5781 8.29167 26.7656 8.65625 26.8594C9.03125 26.9531 9.36979 27 9.67188 27ZM20.0625 2.20312C19.9167 2.20312 19.7812 2.41146 19.6562 2.82812C19.5312 3.23438 19.4115 3.78646 19.2969 4.48438C19.1927 5.17188 19.0938 5.97396 19 6.89062C18.9062 7.79688 18.8177 8.75 18.7344 9.75C18.6615 10.75 18.599 11.7656 18.5469 12.7969C18.4948 13.8177 18.4479 14.7865 18.4062 15.7031C18.75 14.526 19.0521 13.3594 19.3125 12.2031C19.5729 11.0365 19.7917 9.93229 19.9688 8.89062C20.1562 7.83854 20.2917 6.88021 20.375 6.01562C20.4688 5.14062 20.5156 4.41146 20.5156 3.82812C20.5156 3.31771 20.474 2.92188 20.3906 2.64062C20.3177 2.34896 20.2083 2.20312 20.0625 2.20312ZM30.2656 15.2812C29.974 15.2812 29.6458 15.4115 29.2812 15.6719C28.9271 15.9323 28.5677 16.2708 28.2031 16.6875C27.8385 17.0938 27.4844 17.5521 27.1406 18.0625C26.8073 18.5729 26.5156 19.0781 26.2656 19.5781C26.2344 20.4948 26.2031 21.4948 26.1719 22.5781C26.151 23.6615 26.1406 24.8177 26.1406 26.0469C26.1406 26.2031 26.0677 26.3438 25.9219 26.4688C25.7865 26.5833 25.625 26.6823 25.4375 26.7656C25.25 26.8385 25.0573 26.8958 24.8594 26.9375C24.6615 26.9792 24.5 27 24.375 27C24.2188 27 24.0729 26.9531 23.9375 26.8594C23.8021 26.7656 23.7344 26.5573 23.7344 26.2344C23.7344 26.0781 23.75 25.8854 23.7812 25.6562C23.8125 25.4167 23.8542 25.1615 23.9062 24.8906C23.9479 24.6198 24 24.3438 24.0625 24.0625C24.1146 23.7708 24.1667 23.5 24.2188 23.25V15.6094C24.2188 15.401 24.224 15.2396 24.2344 15.125C24.2344 15 24.25 14.9062 24.2812 14.8438C24.3438 14.6979 24.4531 14.5833 24.6094 14.5C24.7656 14.4167 24.9323 14.3542 25.1094 14.3125C25.2865 14.2604 25.4583 14.2292 25.625 14.2188C25.7917 14.2083 25.9219 14.2031 26.0156 14.2031C26.1927 14.2031 26.3125 14.25 26.375 14.3438C26.4479 14.4375 26.4844 14.6042 26.4844 14.8438C26.4844 14.8125 26.4583 15.0677 26.4062 15.6094C26.3646 16.151 26.3281 16.9271 26.2969 17.9375C26.6094 17.4479 26.9479 16.9792 27.3125 16.5312C27.6771 16.0833 28.0573 15.6875 28.4531 15.3438C28.849 15 29.2552 14.724 29.6719 14.5156C30.099 14.3073 30.5312 14.2031 30.9688 14.2031C31.75 14.2031 32.3229 14.4531 32.6875 14.9531C33.0521 15.4427 33.2344 16.1094 33.2344 16.9531C33.2344 17.4844 33.1979 18.0781 33.125 18.7344C33.0625 19.3802 32.9844 20.0417 32.8906 20.7188C32.8073 21.3854 32.7292 22.0417 32.6562 22.6875C32.5938 23.3229 32.5625 23.9062 32.5625 24.4375C32.5625 25.125 32.776 25.4688 33.2031 25.4688C33.3385 25.4688 33.4948 25.401 33.6719 25.2656C33.8594 25.1198 34.0885 24.8542 34.3594 24.4688C34.6406 24.0833 34.974 23.5573 35.3594 22.8906C35.7448 22.2135 36.2031 21.3438 36.7344 20.2812L36.8906 19.9531L37.5312 20.4375L37.375 20.7656C36.75 22.0156 36.1927 23.0417 35.7031 23.8438C35.224 24.6458 34.7865 25.2812 34.3906 25.75C33.9948 26.2188 33.625 26.5469 33.2812 26.7344C32.9375 26.9115 32.5938 27 32.25 27C32.0312 27 31.8125 26.9688 31.5938 26.9062C31.375 26.8438 31.1823 26.7344 31.0156 26.5781C30.849 26.4219 30.7135 26.2135 30.6094 25.9531C30.5052 25.6823 30.4531 25.3385 30.4531 24.9219C30.4531 24.2969 30.4948 23.5938 30.5781 22.8125C30.6615 22.0312 30.7552 21.25 30.8594 20.4688C30.9635 19.6875 31.0573 18.9531 31.1406 18.2656C31.224 17.5677 31.2656 17 31.2656 16.5625C31.2656 16.1771 31.1823 15.8698 31.0156 15.6406C30.849 15.401 30.599 15.2812 30.2656 15.2812ZM37.7031 20.125L37.5469 20.4375L37.3906 20.7656L36.75 20.2812L36.9062 19.9531C37.1667 19.4219 37.3802 18.8906 37.5469 18.3594C37.724 17.8177 37.8646 17.3125 37.9688 16.8438C38.0833 16.375 38.1771 15.9635 38.25 15.6094C38.3229 15.2552 38.3958 15 38.4688 14.8438C38.5312 14.7188 38.6198 14.6198 38.7344 14.5469C38.8594 14.4635 38.9844 14.3958 39.1094 14.3438C39.2448 14.2917 39.3698 14.2552 39.4844 14.2344C39.6094 14.2135 39.6979 14.2031 39.75 14.2031C39.9792 14.2031 40.1302 14.25 40.2031 14.3438C40.2865 14.4375 40.3281 14.6042 40.3281 14.8438C40.3281 14.9583 40.3021 15.2448 40.25 15.7031C40.2083 16.151 40.1562 16.7188 40.0938 17.4062C40.0417 18.0833 39.9896 18.849 39.9375 19.7031C39.8958 20.5469 39.875 21.4219 39.875 22.3281C39.875 22.9844 39.9062 23.5052 39.9688 23.8906C40.0312 24.2656 40.1094 24.5469 40.2031 24.7344C40.3073 24.9219 40.4167 25.0417 40.5312 25.0938C40.6562 25.1458 40.7812 25.1719 40.9062 25.1719C41.0729 25.1719 41.2604 25.099 41.4688 24.9531C41.6771 24.8073 41.9219 24.5521 42.2031 24.1875C42.4844 23.8125 42.8073 23.3125 43.1719 22.6875C43.5365 22.0521 43.9635 21.25 44.4531 20.2812L44.625 19.9531L45.2656 20.4375L45.0938 20.7656C44.6979 21.5365 44.3021 22.2969 43.9062 23.0469C43.5208 23.7969 43.125 24.4635 42.7188 25.0469C42.3229 25.6302 41.9219 26.1042 41.5156 26.4688C41.1094 26.8229 40.7031 27 40.2969 27C39.8698 27 39.5 26.9167 39.1875 26.75C38.8854 26.5729 38.6302 26.2865 38.4219 25.8906C38.224 25.4948 38.0729 24.974 37.9688 24.3281C37.875 23.6719 37.8281 22.8646 37.8281 21.9062C37.8281 21.6354 37.8281 21.3542 37.8281 21.0625C37.8281 20.7604 37.8385 20.4479 37.8594 20.125H37.7031ZM40.9062 11C40.9062 11.3646 40.7812 11.6719 40.5312 11.9219C40.2917 12.1615 39.9896 12.2812 39.625 12.2812C39.2708 12.2812 38.9688 12.1615 38.7188 11.9219C38.4688 11.6719 38.3438 11.3646 38.3438 11C38.3438 10.6458 38.4688 10.3438 38.7188 10.0938C38.9688 9.84375 39.2708 9.71875 39.625 9.71875C39.9896 9.71875 40.2917 9.84375 40.5312 10.0938C40.7812 10.3438 40.9062 10.6458 40.9062 11ZM49.7188 15.3125C49.4167 15.3125 49.125 15.4219 48.8438 15.6406C48.5729 15.849 48.3125 16.1406 48.0625 16.5156C47.8125 16.8802 47.5677 17.3125 47.3281 17.8125C47.099 18.3021 46.8698 18.8281 46.6406 19.3906V19.5781C46.6094 20.4948 46.5781 21.4688 46.5469 22.5C46.526 23.5312 46.5156 24.6562 46.5156 25.875C46.5156 26.0833 46.4427 26.2604 46.2969 26.4062C46.1615 26.5417 46 26.6562 45.8125 26.75C45.625 26.8333 45.4323 26.8958 45.2344 26.9375C45.0365 26.9792 44.875 27 44.75 27C44.5938 27 44.4479 26.9531 44.3125 26.8594C44.1771 26.7656 44.1094 26.5573 44.1094 26.2344C44.1094 26.0781 44.125 25.8854 44.1562 25.6562C44.1875 25.4167 44.2292 25.1615 44.2812 24.8906C44.3229 24.6198 44.375 24.3438 44.4375 24.0625C44.4896 23.7708 44.5417 23.5 44.5938 23.25C44.5938 22.3646 44.5938 21.5677 44.5938 20.8594C44.5833 20.151 44.5781 19.5208 44.5781 18.9688C44.5781 18.4167 44.5781 17.9323 44.5781 17.5156C44.5677 17.099 44.5625 16.7396 44.5625 16.4375C44.5625 15.9375 44.5729 15.5729 44.5938 15.3438C44.6042 15.1042 44.625 14.9375 44.6562 14.8438C44.7083 14.6979 44.8021 14.5833 44.9375 14.5C45.0833 14.4167 45.2344 14.3542 45.3906 14.3125C45.5469 14.2604 45.7031 14.2292 45.8594 14.2188C46.0156 14.2083 46.1354 14.2031 46.2188 14.2031C46.4167 14.2031 46.5469 14.2604 46.6094 14.375C46.6719 14.4896 46.7031 14.6667 46.7031 14.9062C46.7031 15.4479 46.7031 15.9375 46.7031 16.375C46.7031 16.8125 46.6927 17.25 46.6719 17.6875C46.8698 17.2188 47.099 16.776 47.3594 16.3594C47.6302 15.9323 47.9271 15.5625 48.25 15.25C48.5729 14.9271 48.9115 14.6719 49.2656 14.4844C49.6302 14.2969 50.0052 14.2031 50.3906 14.2031C50.8594 14.2031 51.2448 14.3021 51.5469 14.5C51.8594 14.6875 52.1042 14.9531 52.2812 15.2969C52.4688 15.6406 52.6042 16.0469 52.6875 16.5156C52.7812 16.974 52.8438 17.474 52.875 18.0156C53.1667 17.4844 53.4792 16.9896 53.8125 16.5312C54.1562 16.0625 54.5156 15.6562 54.8906 15.3125C55.276 14.9688 55.6771 14.6979 56.0938 14.5C56.5208 14.3021 56.9635 14.2031 57.4219 14.2031C58.2135 14.2031 58.7917 14.4531 59.1562 14.9531C59.5208 15.4427 59.7031 16.1094 59.7031 16.9531C59.7031 17.4844 59.6615 18.0781 59.5781 18.7344C59.4948 19.3906 59.4062 20.0573 59.3125 20.7344C59.2188 21.401 59.1302 22.0573 59.0469 22.7031C58.9635 23.349 58.9219 23.9375 58.9219 24.4688C58.9219 25.1146 59.0833 25.4375 59.4062 25.4375C59.5729 25.4375 59.7552 25.3385 59.9531 25.1406C60.151 24.9323 60.375 24.6198 60.625 24.2031C60.8854 23.776 61.1823 23.2396 61.5156 22.5938C61.8594 21.9479 62.2552 21.1771 62.7031 20.2812L62.8594 19.9531L63.5 20.4375L63.3438 20.7656C62.7292 21.9948 62.2031 23.0104 61.7656 23.8125C61.3385 24.6146 60.9531 25.2552 60.6094 25.7344C60.2656 26.2031 59.9375 26.5312 59.625 26.7188C59.3229 26.9062 58.9844 27 58.6094 27C58.3906 27 58.1771 26.9688 57.9688 26.9062C57.7604 26.8438 57.5781 26.7344 57.4219 26.5781C57.2656 26.4219 57.1406 26.2135 57.0469 25.9531C56.9531 25.6823 56.9062 25.3385 56.9062 24.9219C56.9062 24.2969 56.9479 23.5938 57.0312 22.8125C57.1146 22.0312 57.2083 21.25 57.3125 20.4688C57.4167 19.6875 57.5104 18.9531 57.5938 18.2656C57.6771 17.5677 57.7188 17 57.7188 16.5625C57.7188 16.1771 57.6354 15.8698 57.4688 15.6406C57.3021 15.401 57.0521 15.2812 56.7188 15.2812C56.3854 15.2812 56.0365 15.4115 55.6719 15.6719C55.3177 15.9323 54.9688 16.2708 54.625 16.6875C54.2917 17.0938 53.974 17.5521 53.6719 18.0625C53.3802 18.5729 53.125 19.0781 52.9062 19.5781C52.9062 20.6719 52.8958 21.6302 52.875 22.4531C52.8542 23.2656 52.8229 23.9531 52.7812 24.5156C52.75 25.0781 52.7031 25.526 52.6406 25.8594C52.5781 26.1823 52.5104 26.401 52.4375 26.5156C52.3854 26.5885 52.2969 26.6562 52.1719 26.7188C52.0469 26.7812 51.9062 26.8333 51.75 26.875C51.6042 26.9167 51.4583 26.9479 51.3125 26.9688C51.1771 26.9896 51.0729 27 51 27C50.8333 27 50.6875 26.9531 50.5625 26.8594C50.4479 26.7552 50.3906 26.5573 50.3906 26.2656C50.3906 26.1302 50.401 25.9479 50.4219 25.7188C50.4531 25.4896 50.4896 25.2344 50.5312 24.9531C50.5729 24.6719 50.6198 24.3698 50.6719 24.0469C50.724 23.724 50.776 23.3958 50.8281 23.0625C50.8385 22.75 50.849 22.401 50.8594 22.0156C50.8698 21.6302 50.8802 21.25 50.8906 20.875C50.901 20.4896 50.9062 20.125 50.9062 19.7812C50.9167 19.4271 50.9219 19.125 50.9219 18.875C50.9219 18.3438 50.9062 17.8594 50.875 17.4219C50.8438 16.9844 50.7812 16.6094 50.6875 16.2969C50.6042 15.9844 50.4844 15.7448 50.3281 15.5781C50.1719 15.401 49.9688 15.3125 49.7188 15.3125ZM75.9688 20.4375L75.7969 20.7656C75.4427 21.474 74.9688 22.0417 74.375 22.4688C73.7917 22.8854 73.1562 23.1562 72.4688 23.2812C72.2812 23.8125 72.0365 24.3073 71.7344 24.7656C71.4427 25.2135 71.1042 25.6042 70.7188 25.9375C70.3438 26.2708 69.9167 26.5312 69.4375 26.7188C68.9688 26.9062 68.4583 27 67.9062 27C67.1042 27 66.3802 26.8333 65.7344 26.5C65.099 26.1562 64.5573 25.6979 64.1094 25.125C63.6615 24.5417 63.3177 23.8646 63.0781 23.0938C62.8385 22.3125 62.7188 21.4792 62.7188 20.5938C62.7188 19.8229 62.8073 19.125 62.9844 18.5C63.1615 17.8646 63.3854 17.3021 63.6562 16.8125C63.9271 16.3125 64.2292 15.8802 64.5625 15.5156C64.8958 15.1406 65.224 14.8333 65.5469 14.5938C65.8698 14.3542 66.1615 14.1771 66.4219 14.0625C66.6927 13.9375 66.8958 13.875 67.0312 13.875L67.2344 14.4219C66.8073 14.7344 66.4271 15.1719 66.0938 15.7344C65.8021 16.2135 65.5365 16.849 65.2969 17.6406C65.0677 18.4323 64.9531 19.4167 64.9531 20.5938C64.9531 21.3125 65.0208 22.0104 65.1562 22.6875C65.2917 23.3646 65.4896 23.9635 65.75 24.4844C66.0104 25.0052 66.3281 25.4219 66.7031 25.7344C67.0885 26.0469 67.5208 26.2031 68 26.2031C68.6562 26.2031 69.1979 25.9427 69.625 25.4219C70.0625 24.8906 70.3854 24.1667 70.5938 23.25C70.0521 23.1354 69.5365 22.9219 69.0469 22.6094C68.5573 22.2969 68.125 21.9115 67.75 21.4531C67.375 20.9844 67.0729 20.4479 66.8438 19.8438C66.625 19.2396 66.5156 18.5833 66.5156 17.875C66.5156 17.2917 66.5885 16.7812 66.7344 16.3438C66.8906 15.8958 67.0938 15.526 67.3438 15.2344C67.5938 14.9323 67.8802 14.7083 68.2031 14.5625C68.5365 14.4062 68.8854 14.3281 69.25 14.3281C69.6771 14.3281 70.1146 14.4531 70.5625 14.7031C71.0104 14.9427 71.4167 15.3073 71.7812 15.7969C72.1458 16.276 72.4427 16.8802 72.6719 17.6094C72.901 18.3385 73.0156 19.1875 73.0156 20.1562C73.0156 20.5208 72.9948 20.8802 72.9531 21.2344C72.9115 21.5885 72.849 21.9323 72.7656 22.2656C73.2656 22.1198 73.7188 21.8854 74.125 21.5625C74.5417 21.2396 74.8854 20.8125 75.1562 20.2812L75.3281 19.9531L75.9688 20.4375ZM67.5469 17.75C67.5469 18.3646 67.6302 18.9323 67.7969 19.4531C67.974 19.9635 68.2083 20.4167 68.5 20.8125C68.7917 21.1979 69.1302 21.5208 69.5156 21.7812C69.901 22.0417 70.3125 22.224 70.75 22.3281C70.8021 22.0365 70.8333 21.7344 70.8438 21.4219C70.8646 21.099 70.875 20.7708 70.875 20.4375C70.875 19.6979 70.8177 19.0312 70.7031 18.4375C70.5885 17.8333 70.4375 17.3229 70.25 16.9062C70.0625 16.4792 69.8438 16.151 69.5938 15.9219C69.3438 15.6927 69.0885 15.5781 68.8281 15.5781C68.474 15.5781 68.1719 15.7708 67.9219 16.1562C67.6719 16.5312 67.5469 17.0625 67.5469 17.75ZM77.9688 15.1562C77.9688 15.5625 77.9323 16.0781 77.8594 16.7031C77.7969 17.3281 77.724 18.026 77.6406 18.7969C77.5677 19.5573 77.4948 20.375 77.4219 21.25C77.3594 22.125 77.3281 23.0156 77.3281 23.9219C77.3281 24.651 77.4479 25.1562 77.6875 25.4375C77.9271 25.7083 78.2552 25.8438 78.6719 25.8438C78.9635 25.8438 79.2604 25.7656 79.5625 25.6094C79.8646 25.4531 80.151 25.2396 80.4219 24.9688C80.7031 24.6979 80.9635 24.375 81.2031 24C81.4427 23.625 81.6562 23.2188 81.8438 22.7812C81.25 22.4167 80.75 21.8229 80.3438 21C79.9375 20.1667 79.7344 19.1146 79.7344 17.8438C79.7344 17.2083 79.8021 16.6719 79.9375 16.2344C80.0729 15.7865 80.25 15.4219 80.4688 15.1406C80.6979 14.8594 80.9531 14.6562 81.2344 14.5312C81.5156 14.3958 81.8021 14.3281 82.0938 14.3281C82.3542 14.3281 82.6094 14.3802 82.8594 14.4844C83.1094 14.5885 83.3281 14.7604 83.5156 15C83.7031 15.2292 83.8542 15.5365 83.9688 15.9219C84.0833 16.3073 84.1406 16.7812 84.1406 17.3438C84.1406 18.0521 84.0521 18.849 83.875 19.7344C83.7083 20.6094 83.4583 21.4844 83.125 22.3594C83.1771 22.3594 83.2292 22.3646 83.2812 22.375C83.3333 22.3854 83.3854 22.3906 83.4375 22.3906C84.0208 22.3906 84.5156 22.2031 84.9219 21.8281C85.3385 21.4427 85.7083 20.9271 86.0312 20.2812L86.1875 19.9531L86.8281 20.4375L86.6719 20.7656C86.2552 21.5781 85.75 22.1875 85.1562 22.5938C84.5729 22.9896 83.9688 23.1875 83.3438 23.1875C83.25 23.1875 83.1458 23.1823 83.0312 23.1719C82.9271 23.1615 82.849 23.1458 82.7969 23.125C82.5573 23.6562 82.276 24.1562 81.9531 24.625C81.6302 25.0938 81.2708 25.5052 80.875 25.8594C80.4896 26.2031 80.0625 26.4792 79.5938 26.6875C79.1354 26.8958 78.6458 27 78.125 27C77.6979 27 77.3021 26.9375 76.9375 26.8125C76.5729 26.6771 76.25 26.4375 75.9688 26.0938C75.6979 25.7396 75.4844 25.2656 75.3281 24.6719C75.1719 24.0677 75.0938 23.2969 75.0938 22.3594C75.0938 21.9427 75.1042 21.4792 75.125 20.9688C75.1458 20.4479 75.1771 19.9219 75.2188 19.3906C75.25 18.8594 75.2917 18.3385 75.3438 17.8281C75.3854 17.3177 75.4323 16.8542 75.4844 16.4375C75.5365 16.0104 75.5885 15.6562 75.6406 15.375C75.6927 15.0833 75.7448 14.8958 75.7969 14.8125C75.9219 14.5833 76.1302 14.4271 76.4219 14.3438C76.7135 14.25 76.9948 14.2031 77.2656 14.2031C77.4531 14.2031 77.6146 14.2708 77.75 14.4062C77.8958 14.5417 77.9688 14.7917 77.9688 15.1562ZM80.5938 17.9062C80.5938 18.9062 80.7396 19.75 81.0312 20.4375C81.3333 21.1146 81.7083 21.6146 82.1562 21.9375C82.3854 21.2812 82.5625 20.6042 82.6875 19.9062C82.8229 19.1979 82.8906 18.5208 82.8906 17.875C82.8906 17.4583 82.8542 17.1094 82.7812 16.8281C82.7188 16.5365 82.6354 16.3021 82.5312 16.125C82.4271 15.9479 82.3021 15.8229 82.1562 15.75C82.0208 15.6771 81.8854 15.6406 81.75 15.6406C81.6042 15.6406 81.4635 15.6823 81.3281 15.7656C81.1927 15.8385 81.0677 15.9635 80.9531 16.1406C80.849 16.3177 80.7604 16.5521 80.6875 16.8438C80.625 17.1354 80.5938 17.4896 80.5938 17.9062ZM90.7969 25.2344C91.1615 25.2344 91.5312 25.1406 91.9062 24.9531C92.2917 24.7656 92.6771 24.474 93.0625 24.0781C93.4583 23.6823 93.8646 23.1719 94.2812 22.5469C94.6979 21.9115 95.125 21.1562 95.5625 20.2812L95.7188 19.9531L96.3594 20.4375L96.2031 20.7656C95.6406 21.8802 95.0781 22.8333 94.5156 23.625C93.9635 24.4167 93.4167 25.0625 92.875 25.5625C92.3438 26.0625 91.8177 26.4271 91.2969 26.6562C90.776 26.8854 90.276 27 89.7969 27C89.1198 27 88.5156 26.8594 87.9844 26.5781C87.4531 26.2969 87.0052 25.9167 86.6406 25.4375C86.276 24.9479 86 24.3854 85.8125 23.75C85.6146 23.1042 85.5156 22.4271 85.5156 21.7188C85.5156 20.5938 85.6719 19.5729 85.9844 18.6562C86.2865 17.7292 86.6927 16.9375 87.2031 16.2812C87.724 15.625 88.3125 15.1146 88.9688 14.75C89.625 14.3854 90.3073 14.2031 91.0156 14.2031C91.7344 14.2031 92.2812 14.3854 92.6562 14.75C93.0417 15.1146 93.2344 15.5729 93.2344 16.125C93.2344 16.6562 93.0833 17.1562 92.7812 17.625C92.4792 18.0833 92.0677 18.5365 91.5469 18.9844C91.0365 19.4219 90.4427 19.8594 89.7656 20.2969C89.0885 20.724 88.375 21.1667 87.625 21.625C87.6979 22.1667 87.8229 22.6615 88 23.1094C88.1771 23.5469 88.401 23.9271 88.6719 24.25C88.9427 24.5625 89.2552 24.8073 89.6094 24.9844C89.9635 25.151 90.3594 25.2344 90.7969 25.2344ZM91.2812 16.5938C91.2812 16.1771 91.1667 15.849 90.9375 15.6094C90.7188 15.3698 90.4479 15.25 90.125 15.25C89.8542 15.25 89.5677 15.349 89.2656 15.5469C88.9635 15.7344 88.6875 16.0417 88.4375 16.4688C88.1875 16.8854 87.9792 17.4219 87.8125 18.0781C87.6458 18.7344 87.5625 19.5312 87.5625 20.4688V20.8281C87.9167 20.6406 88.3073 20.3958 88.7344 20.0938C89.1719 19.7812 89.5781 19.4375 89.9531 19.0625C90.3281 18.6875 90.6406 18.2917 90.8906 17.875C91.151 17.4479 91.2812 17.0208 91.2812 16.5938ZM98.1094 15.125C98.1094 17 98.3229 18.6354 98.75 20.0312C99.1771 21.4271 99.7396 22.5885 100.438 23.5156C101.146 24.4427 101.948 25.1406 102.844 25.6094C103.75 26.0677 104.677 26.2969 105.625 26.2969C106.302 26.2969 106.969 26.1719 107.625 25.9219C108.292 25.6719 108.938 25.2969 109.562 24.7969C110.188 24.2969 110.786 23.6719 111.359 22.9219C111.943 22.1719 112.484 21.2917 112.984 20.2812L113.156 19.9531L113.797 20.4375L113.625 20.7656C113.052 21.9219 112.417 22.9375 111.719 23.8125C111.031 24.6875 110.297 25.4219 109.516 26.0156C108.734 26.599 107.922 27.0417 107.078 27.3438C106.245 27.6458 105.391 27.7969 104.516 27.7969C103.766 27.7969 103.021 27.6875 102.281 27.4688C101.552 27.2604 100.854 26.9427 100.188 26.5156C99.5312 26.0781 98.9167 25.5312 98.3438 24.875C97.7812 24.2188 97.2917 23.4531 96.875 22.5781C96.4583 21.6927 96.1302 20.6979 95.8906 19.5938C95.6615 18.4792 95.5469 17.2552 95.5469 15.9219C95.5469 14.1615 95.6927 12.5677 95.9844 11.1406C96.2865 9.70312 96.6875 8.42708 97.1875 7.3125C97.6979 6.1875 98.2865 5.21354 98.9531 4.39062C99.6302 3.56771 100.339 2.89062 101.078 2.35938C101.818 1.81771 102.573 1.41667 103.344 1.15625C104.115 0.895833 104.854 0.765625 105.562 0.765625C106.49 0.765625 107.344 0.927083 108.125 1.25C108.906 1.5625 109.578 2.01042 110.141 2.59375C110.703 3.16667 111.141 3.86979 111.453 4.70312C111.776 5.52604 111.938 6.44271 111.938 7.45312C111.938 8.42188 111.786 9.33333 111.484 10.1875C111.193 11.0417 110.797 11.7917 110.297 12.4375C109.807 13.0729 109.24 13.5781 108.594 13.9531C107.958 14.3281 107.292 14.5156 106.594 14.5156C106.125 14.5156 105.688 14.4323 105.281 14.2656C104.875 14.099 104.521 13.8646 104.219 13.5625C103.917 13.2604 103.677 12.8906 103.5 12.4531C103.323 12.0156 103.234 11.5312 103.234 11C103.234 10.4896 103.312 10 103.469 9.53125C103.625 9.05208 103.823 8.61458 104.062 8.21875C104.302 7.8125 104.562 7.45833 104.844 7.15625C105.135 6.84375 105.417 6.59896 105.688 6.42188L106.109 6.84375C105.891 7.09375 105.682 7.36458 105.484 7.65625C105.297 7.9375 105.13 8.24479 104.984 8.57812C104.839 8.90104 104.724 9.25 104.641 9.625C104.557 10 104.516 10.4062 104.516 10.8438C104.516 11.2917 104.568 11.6927 104.672 12.0469C104.786 12.401 104.938 12.7031 105.125 12.9531C105.323 13.2031 105.547 13.3958 105.797 13.5312C106.047 13.6562 106.312 13.7188 106.594 13.7188C106.979 13.7188 107.365 13.5781 107.75 13.2969C108.135 13.0052 108.479 12.5833 108.781 12.0312C109.083 11.4688 109.328 10.7812 109.516 9.96875C109.703 9.15625 109.797 8.21875 109.797 7.15625C109.797 6.19792 109.688 5.36979 109.469 4.67188C109.26 3.96354 108.969 3.38021 108.594 2.92188C108.219 2.46354 107.776 2.125 107.266 1.90625C106.755 1.67708 106.208 1.5625 105.625 1.5625C105.208 1.5625 104.734 1.65625 104.203 1.84375C103.672 2.02083 103.125 2.31771 102.562 2.73438C102.01 3.15104 101.469 3.70312 100.938 4.39062C100.406 5.06771 99.9271 5.91146 99.5 6.92188C99.0833 7.92188 98.7448 9.09896 98.4844 10.4531C98.2344 11.8073 98.1094 13.3646 98.1094 15.125ZM126.25 20.4375L126.078 20.7656C125.724 21.474 125.25 22.0417 124.656 22.4688C124.073 22.8854 123.438 23.1562 122.75 23.2812C122.562 23.8125 122.318 24.3073 122.016 24.7656C121.724 25.2135 121.385 25.6042 121 25.9375C120.625 26.2708 120.198 26.5312 119.719 26.7188C119.25 26.9062 118.74 27 118.188 27C117.385 27 116.661 26.8333 116.016 26.5C115.38 26.1562 114.839 25.6979 114.391 25.125C113.943 24.5417 113.599 23.8646 113.359 23.0938C113.12 22.3125 113 21.4792 113 20.5938C113 19.8229 113.089 19.125 113.266 18.5C113.443 17.8646 113.667 17.3021 113.938 16.8125C114.208 16.3125 114.51 15.8802 114.844 15.5156C115.177 15.1406 115.505 14.8333 115.828 14.5938C116.151 14.3542 116.443 14.1771 116.703 14.0625C116.974 13.9375 117.177 13.875 117.312 13.875L117.516 14.4219C117.089 14.7344 116.708 15.1719 116.375 15.7344C116.083 16.2135 115.818 16.849 115.578 17.6406C115.349 18.4323 115.234 19.4167 115.234 20.5938C115.234 21.3125 115.302 22.0104 115.438 22.6875C115.573 23.3646 115.771 23.9635 116.031 24.4844C116.292 25.0052 116.609 25.4219 116.984 25.7344C117.37 26.0469 117.802 26.2031 118.281 26.2031C118.938 26.2031 119.479 25.9427 119.906 25.4219C120.344 24.8906 120.667 24.1667 120.875 23.25C120.333 23.1354 119.818 22.9219 119.328 22.6094C118.839 22.2969 118.406 21.9115 118.031 21.4531C117.656 20.9844 117.354 20.4479 117.125 19.8438C116.906 19.2396 116.797 18.5833 116.797 17.875C116.797 17.2917 116.87 16.7812 117.016 16.3438C117.172 15.8958 117.375 15.526 117.625 15.2344C117.875 14.9323 118.161 14.7083 118.484 14.5625C118.818 14.4062 119.167 14.3281 119.531 14.3281C119.958 14.3281 120.396 14.4531 120.844 14.7031C121.292 14.9427 121.698 15.3073 122.062 15.7969C122.427 16.276 122.724 16.8802 122.953 17.6094C123.182 18.3385 123.297 19.1875 123.297 20.1562C123.297 20.5208 123.276 20.8802 123.234 21.2344C123.193 21.5885 123.13 21.9323 123.047 22.2656C123.547 22.1198 124 21.8854 124.406 21.5625C124.823 21.2396 125.167 20.8125 125.438 20.2812L125.609 19.9531L126.25 20.4375ZM117.828 17.75C117.828 18.3646 117.911 18.9323 118.078 19.4531C118.255 19.9635 118.49 20.4167 118.781 20.8125C119.073 21.1979 119.411 21.5208 119.797 21.7812C120.182 22.0417 120.594 22.224 121.031 22.3281C121.083 22.0365 121.115 21.7344 121.125 21.4219C121.146 21.099 121.156 20.7708 121.156 20.4375C121.156 19.6979 121.099 19.0312 120.984 18.4375C120.87 17.8333 120.719 17.3229 120.531 16.9062C120.344 16.4792 120.125 16.151 119.875 15.9219C119.625 15.6927 119.37 15.5781 119.109 15.5781C118.755 15.5781 118.453 15.7708 118.203 16.1562C117.953 16.5312 117.828 17.0625 117.828 17.75ZM131.641 15.2812C131.349 15.2812 131.021 15.4115 130.656 15.6719C130.302 15.9323 129.943 16.2708 129.578 16.6875C129.214 17.0938 128.859 17.5521 128.516 18.0625C128.182 18.5729 127.891 19.0781 127.641 19.5781C127.609 20.4948 127.578 21.4948 127.547 22.5781C127.526 23.6615 127.516 24.8177 127.516 26.0469C127.516 26.2031 127.443 26.3438 127.297 26.4688C127.161 26.5833 127 26.6823 126.812 26.7656C126.625 26.8385 126.432 26.8958 126.234 26.9375C126.036 26.9792 125.875 27 125.75 27C125.594 27 125.448 26.9531 125.312 26.8594C125.177 26.7656 125.109 26.5573 125.109 26.2344C125.109 26.0781 125.125 25.8854 125.156 25.6562C125.188 25.4167 125.229 25.1615 125.281 24.8906C125.323 24.6198 125.375 24.3438 125.438 24.0625C125.49 23.7708 125.542 23.5 125.594 23.25V15.6094C125.594 15.401 125.599 15.2396 125.609 15.125C125.609 15 125.625 14.9062 125.656 14.8438C125.719 14.6979 125.828 14.5833 125.984 14.5C126.141 14.4167 126.307 14.3542 126.484 14.3125C126.661 14.2604 126.833 14.2292 127 14.2188C127.167 14.2083 127.297 14.2031 127.391 14.2031C127.568 14.2031 127.688 14.25 127.75 14.3438C127.823 14.4375 127.859 14.6042 127.859 14.8438C127.859 14.8125 127.833 15.0677 127.781 15.6094C127.74 16.151 127.703 16.9271 127.672 17.9375C127.984 17.4479 128.323 16.9792 128.688 16.5312C129.052 16.0833 129.432 15.6875 129.828 15.3438C130.224 15 130.63 14.724 131.047 14.5156C131.474 14.3073 131.906 14.2031 132.344 14.2031C133.125 14.2031 133.698 14.4531 134.062 14.9531C134.427 15.4427 134.609 16.1094 134.609 16.9531C134.609 17.4844 134.573 18.0781 134.5 18.7344C134.438 19.3802 134.359 20.0417 134.266 20.7188C134.182 21.3854 134.104 22.0417 134.031 22.6875C133.969 23.3229 133.938 23.9062 133.938 24.4375C133.938 25.125 134.151 25.4688 134.578 25.4688C134.714 25.4688 134.87 25.401 135.047 25.2656C135.234 25.1198 135.464 24.8542 135.734 24.4688C136.016 24.0833 136.349 23.5573 136.734 22.8906C137.12 22.2135 137.578 21.3438 138.109 20.2812L138.266 19.9531L138.906 20.4375L138.75 20.7656C138.125 22.0156 137.568 23.0417 137.078 23.8438C136.599 24.6458 136.161 25.2812 135.766 25.75C135.37 26.2188 135 26.5469 134.656 26.7344C134.312 26.9115 133.969 27 133.625 27C133.406 27 133.188 26.9688 132.969 26.9062C132.75 26.8438 132.557 26.7344 132.391 26.5781C132.224 26.4219 132.089 26.2135 131.984 25.9531C131.88 25.6823 131.828 25.3385 131.828 24.9219C131.828 24.2969 131.87 23.5938 131.953 22.8125C132.036 22.0312 132.13 21.25 132.234 20.4688C132.339 19.6875 132.432 18.9531 132.516 18.2656C132.599 17.5677 132.641 17 132.641 16.5625C132.641 16.1771 132.557 15.8698 132.391 15.6406C132.224 15.401 131.974 15.2812 131.641 15.2812ZM144.297 15.2812C144.005 15.2812 143.677 15.4115 143.312 15.6719C142.958 15.9323 142.599 16.2708 142.234 16.6875C141.87 17.0938 141.516 17.5521 141.172 18.0625C140.839 18.5729 140.547 19.0781 140.297 19.5781C140.266 20.4948 140.234 21.4948 140.203 22.5781C140.182 23.6615 140.172 24.8177 140.172 26.0469C140.172 26.2031 140.099 26.3438 139.953 26.4688C139.818 26.5833 139.656 26.6823 139.469 26.7656C139.281 26.8385 139.089 26.8958 138.891 26.9375C138.693 26.9792 138.531 27 138.406 27C138.25 27 138.104 26.9531 137.969 26.8594C137.833 26.7656 137.766 26.5573 137.766 26.2344C137.766 26.0781 137.781 25.8854 137.812 25.6562C137.844 25.4167 137.885 25.1615 137.938 24.8906C137.979 24.6198 138.031 24.3438 138.094 24.0625C138.146 23.7708 138.198 23.5 138.25 23.25V15.6094C138.25 15.401 138.255 15.2396 138.266 15.125C138.266 15 138.281 14.9062 138.312 14.8438C138.375 14.6979 138.484 14.5833 138.641 14.5C138.797 14.4167 138.964 14.3542 139.141 14.3125C139.318 14.2604 139.49 14.2292 139.656 14.2188C139.823 14.2083 139.953 14.2031 140.047 14.2031C140.224 14.2031 140.344 14.25 140.406 14.3438C140.479 14.4375 140.516 14.6042 140.516 14.8438C140.516 14.8125 140.49 15.0677 140.438 15.6094C140.396 16.151 140.359 16.9271 140.328 17.9375C140.641 17.4479 140.979 16.9792 141.344 16.5312C141.708 16.0833 142.089 15.6875 142.484 15.3438C142.88 15 143.286 14.724 143.703 14.5156C144.13 14.3073 144.562 14.2031 145 14.2031C145.781 14.2031 146.354 14.4531 146.719 14.9531C147.083 15.4427 147.266 16.1094 147.266 16.9531C147.266 17.4844 147.229 18.0781 147.156 18.7344C147.094 19.3802 147.016 20.0417 146.922 20.7188C146.839 21.3854 146.76 22.0417 146.688 22.6875C146.625 23.3229 146.594 23.9062 146.594 24.4375C146.594 25.125 146.807 25.4688 147.234 25.4688C147.37 25.4688 147.526 25.401 147.703 25.2656C147.891 25.1198 148.12 24.8542 148.391 24.4688C148.672 24.0833 149.005 23.5573 149.391 22.8906C149.776 22.2135 150.234 21.3438 150.766 20.2812L150.922 19.9531L151.562 20.4375L151.406 20.7656C150.781 22.0156 150.224 23.0417 149.734 23.8438C149.255 24.6458 148.818 25.2812 148.422 25.75C148.026 26.2188 147.656 26.5469 147.312 26.7344C146.969 26.9115 146.625 27 146.281 27C146.062 27 145.844 26.9688 145.625 26.9062C145.406 26.8438 145.214 26.7344 145.047 26.5781C144.88 26.4219 144.745 26.2135 144.641 25.9531C144.536 25.6823 144.484 25.3385 144.484 24.9219C144.484 24.2969 144.526 23.5938 144.609 22.8125C144.693 22.0312 144.786 21.25 144.891 20.4688C144.995 19.6875 145.089 18.9531 145.172 18.2656C145.255 17.5677 145.297 17 145.297 16.5625C145.297 16.1771 145.214 15.8698 145.047 15.6406C144.88 15.401 144.63 15.2812 144.297 15.2812ZM155.547 25.2344C155.911 25.2344 156.281 25.1406 156.656 24.9531C157.042 24.7656 157.427 24.474 157.812 24.0781C158.208 23.6823 158.615 23.1719 159.031 22.5469C159.448 21.9115 159.875 21.1562 160.312 20.2812L160.469 19.9531L161.109 20.4375L160.953 20.7656C160.391 21.8802 159.828 22.8333 159.266 23.625C158.714 24.4167 158.167 25.0625 157.625 25.5625C157.094 26.0625 156.568 26.4271 156.047 26.6562C155.526 26.8854 155.026 27 154.547 27C153.87 27 153.266 26.8594 152.734 26.5781C152.203 26.2969 151.755 25.9167 151.391 25.4375C151.026 24.9479 150.75 24.3854 150.562 23.75C150.365 23.1042 150.266 22.4271 150.266 21.7188C150.266 20.5938 150.422 19.5729 150.734 18.6562C151.036 17.7292 151.443 16.9375 151.953 16.2812C152.474 15.625 153.062 15.1146 153.719 14.75C154.375 14.3854 155.057 14.2031 155.766 14.2031C156.484 14.2031 157.031 14.3854 157.406 14.75C157.792 15.1146 157.984 15.5729 157.984 16.125C157.984 16.6562 157.833 17.1562 157.531 17.625C157.229 18.0833 156.818 18.5365 156.297 18.9844C155.786 19.4219 155.193 19.8594 154.516 20.2969C153.839 20.724 153.125 21.1667 152.375 21.625C152.448 22.1667 152.573 22.6615 152.75 23.1094C152.927 23.5469 153.151 23.9271 153.422 24.25C153.693 24.5625 154.005 24.8073 154.359 24.9844C154.714 25.151 155.109 25.2344 155.547 25.2344ZM156.031 16.5938C156.031 16.1771 155.917 15.849 155.688 15.6094C155.469 15.3698 155.198 15.25 154.875 15.25C154.604 15.25 154.318 15.349 154.016 15.5469C153.714 15.7344 153.438 16.0417 153.188 16.4688C152.938 16.8854 152.729 17.4219 152.562 18.0781C152.396 18.7344 152.312 19.5312 152.312 20.4688V20.8281C152.667 20.6406 153.057 20.3958 153.484 20.0938C153.922 19.7812 154.328 19.4375 154.703 19.0625C155.078 18.6875 155.391 18.2917 155.641 17.875C155.901 17.4479 156.031 17.0208 156.031 16.5938ZM165.75 18.0781C165.875 17.8802 165.979 17.6354 166.062 17.3438C166.156 17.0521 166.203 16.7604 166.203 16.4688C166.203 16.1146 166.115 15.8073 165.938 15.5469C165.76 15.2865 165.443 15.1562 164.984 15.1562C164.682 15.1562 164.375 15.2656 164.062 15.4844C163.75 15.7031 163.458 16.0312 163.188 16.4688C162.927 16.9062 162.714 17.4583 162.547 18.125C162.38 18.7917 162.297 19.5729 162.297 20.4688C162.297 21.1771 162.37 21.8229 162.516 22.4062C162.661 22.9896 162.875 23.4896 163.156 23.9062C163.438 24.3229 163.776 24.651 164.172 24.8906C164.578 25.1198 165.031 25.2344 165.531 25.2344C165.896 25.2344 166.266 25.1406 166.641 24.9531C167.026 24.7656 167.411 24.474 167.797 24.0781C168.193 23.6823 168.599 23.1719 169.016 22.5469C169.432 21.9115 169.859 21.1562 170.297 20.2812L170.453 19.9531L171.094 20.4375L170.938 20.7656C170.375 21.8802 169.812 22.8333 169.25 23.625C168.698 24.4167 168.151 25.0625 167.609 25.5625C167.068 26.0625 166.536 26.4271 166.016 26.6562C165.505 26.8854 165.01 27 164.531 27C163.854 27 163.25 26.8594 162.719 26.5781C162.188 26.2969 161.74 25.9167 161.375 25.4375C161.01 24.9479 160.729 24.3854 160.531 23.75C160.344 23.1042 160.25 22.4271 160.25 21.7188C160.25 20.5938 160.401 19.5729 160.703 18.6562C161.016 17.7292 161.417 16.9375 161.906 16.2812C162.396 15.625 162.948 15.1146 163.562 14.75C164.177 14.3854 164.797 14.2031 165.422 14.2031C165.901 14.2031 166.302 14.2708 166.625 14.4062C166.948 14.5417 167.208 14.7135 167.406 14.9219C167.604 15.1302 167.745 15.3542 167.828 15.5938C167.911 15.8333 167.953 16.0625 167.953 16.2812C167.953 16.5 167.906 16.7292 167.812 16.9688C167.719 17.1979 167.578 17.4167 167.391 17.625C167.214 17.8229 167 18.0052 166.75 18.1719C166.5 18.3281 166.219 18.4427 165.906 18.5156L165.75 18.0781ZM170.406 21.875C170.406 20.7708 170.448 19.6615 170.531 18.5469C170.615 17.4323 170.724 16.3021 170.859 15.1562H169.438L169.609 14.2031H170.984C171.13 13.1406 171.276 12.0781 171.422 11.0156C171.578 9.94271 171.719 8.86979 171.844 7.79688H173.438C173.417 8.02604 173.385 8.35938 173.344 8.79688C173.312 9.22396 173.271 9.72396 173.219 10.2969C173.177 10.8594 173.135 11.4792 173.094 12.1562C173.052 12.8229 173.01 13.5052 172.969 14.2031H176L175.844 15.1562H172.906C172.865 15.75 172.828 16.3333 172.797 16.9062C172.766 17.4792 172.734 18.026 172.703 18.5469C172.682 19.0573 172.667 19.5312 172.656 19.9688C172.646 20.3958 172.641 20.7656 172.641 21.0781C172.641 21.8698 172.661 22.5312 172.703 23.0625C172.755 23.5938 172.828 24.0208 172.922 24.3438C173.026 24.6667 173.151 24.8958 173.297 25.0312C173.453 25.1667 173.63 25.2344 173.828 25.2344C174.089 25.2344 174.375 25.1042 174.688 24.8438C175.01 24.5729 175.344 24.2135 175.688 23.7656C176.031 23.3177 176.38 22.7969 176.734 22.2031C177.089 21.599 177.432 20.9583 177.766 20.2812L177.922 19.9531L178.562 20.4375L178.406 20.7656C177.927 21.7344 177.448 22.6042 176.969 23.375C176.5 24.1458 176.036 24.8021 175.578 25.3438C175.12 25.875 174.672 26.2865 174.234 26.5781C173.797 26.8594 173.375 27 172.969 27C172.562 27 172.198 26.9062 171.875 26.7188C171.562 26.5312 171.297 26.2344 171.078 25.8281C170.859 25.4115 170.693 24.8802 170.578 24.2344C170.464 23.5885 170.406 22.8021 170.406 21.875Z" fill="black"/>
</svg>
