<svg width="353" height="182" viewBox="0 0 353 182" fill="none" xmlns="http://www.w3.org/2000/svg">
<circle cx="176.5" cy="52" r="52" fill="#EAECF0"/>
<g filter="url(#filter0_dd_6134_10535)">
<path d="M178.1 16C167.327 16 157.798 21.3233 151.999 29.4829C150.105 29.0363 148.13 28.8 146.1 28.8C131.962 28.8 120.5 40.2615 120.5 54.4C120.5 68.5385 131.962 80 146.1 80L210.1 80C222.471 80 232.5 69.9712 232.5 57.6C232.5 45.2288 222.471 35.2 210.1 35.2C209.221 35.2 208.354 35.2506 207.502 35.349C202.598 23.9677 191.28 16 178.1 16Z" fill="#F9FAFB"/>
<ellipse cx="146.1" cy="54.4" rx="25.6" ry="25.6" fill="url(#paint0_linear_6134_10535)"/>
<circle cx="178.1" cy="48" r="32" fill="url(#paint1_linear_6134_10535)"/>
<ellipse cx="210.1" cy="57.6" rx="22.4" ry="22.4" fill="url(#paint2_linear_6134_10535)"/>
</g>
<circle cx="121.5" cy="19" r="5" fill="#F2F4F7"/>
<circle cx="118.5" cy="109" r="7" fill="#F2F4F7"/>
<circle cx="245.5" cy="35" r="7" fill="#F2F4F7"/>
<circle cx="234.5" cy="8" r="4" fill="#F2F4F7"/>
<g filter="url(#filter1_b_6134_10535)">
<rect x="152.5" y="62" width="48" height="48" rx="24" fill="#344054" fill-opacity="0.4"/>
<path d="M185 95L180.65 90.65M183 85C183 89.4183 179.418 93 175 93C170.582 93 167 89.4183 167 85C167 80.5817 170.582 77 175 77C179.418 77 183 80.5817 183 85Z" stroke="white" stroke-width="1.66667" stroke-linecap="round" stroke-linejoin="round"/>
</g>
<path d="M69.8913 140.364H72.272L75.1186 145.511H75.2322L78.0788 140.364H80.4595L76.2266 147.659V152H74.1243V147.659L69.8913 140.364ZM84.0433 152.17C83.1911 152.17 82.4524 151.983 81.8274 151.608C81.2024 151.233 80.7176 150.708 80.3729 150.034C80.032 149.36 79.8615 148.572 79.8615 147.67C79.8615 146.769 80.032 145.979 80.3729 145.301C80.7176 144.623 81.2024 144.097 81.8274 143.722C82.4524 143.347 83.1911 143.159 84.0433 143.159C84.8956 143.159 85.6342 143.347 86.2592 143.722C86.8842 144.097 87.3672 144.623 87.7081 145.301C88.0528 145.979 88.2251 146.769 88.2251 147.67C88.2251 148.572 88.0528 149.36 87.7081 150.034C87.3672 150.708 86.8842 151.233 86.2592 151.608C85.6342 151.983 84.8956 152.17 84.0433 152.17ZM84.0547 150.523C84.5168 150.523 84.9032 150.396 85.2138 150.142C85.5244 149.884 85.7554 149.54 85.907 149.108C86.0623 148.676 86.1399 148.195 86.1399 147.665C86.1399 147.131 86.0623 146.648 85.907 146.216C85.7554 145.78 85.5244 145.434 85.2138 145.176C84.9032 144.919 84.5168 144.79 84.0547 144.79C83.5812 144.79 83.1873 144.919 82.8729 145.176C82.5623 145.434 82.3293 145.78 82.174 146.216C82.0225 146.648 81.9467 147.131 81.9467 147.665C81.9467 148.195 82.0225 148.676 82.174 149.108C82.3293 149.54 82.5623 149.884 82.8729 150.142C83.1873 150.396 83.5812 150.523 84.0547 150.523ZM95.5334 148.33V143.273H97.5902V152H95.5959V150.449H95.505C95.308 150.937 94.9841 151.337 94.5334 151.648C94.0864 151.958 93.5353 152.114 92.88 152.114C92.308 152.114 91.8023 151.987 91.3629 151.733C90.9273 151.475 90.5864 151.102 90.3402 150.614C90.094 150.121 89.9709 149.527 89.9709 148.83V143.273H92.0277V148.511C92.0277 149.064 92.1792 149.504 92.4822 149.83C92.7853 150.155 93.183 150.318 93.6754 150.318C93.9785 150.318 94.272 150.244 94.5561 150.097C94.8402 149.949 95.0732 149.729 95.255 149.438C95.4406 149.142 95.5334 148.773 95.5334 148.33ZM105.731 146.886V152H103.674V140.364H105.685V144.756H105.788C105.992 144.263 106.308 143.875 106.737 143.591C107.168 143.303 107.718 143.159 108.384 143.159C108.99 143.159 109.519 143.286 109.969 143.54C110.42 143.794 110.769 144.165 111.015 144.653C111.265 145.142 111.39 145.739 111.39 146.443V152H109.333V146.761C109.333 146.174 109.182 145.718 108.879 145.392C108.579 145.062 108.159 144.898 107.617 144.898C107.254 144.898 106.928 144.977 106.64 145.136C106.356 145.292 106.132 145.517 105.969 145.812C105.81 146.108 105.731 146.466 105.731 146.886ZM115.998 152.176C115.445 152.176 114.947 152.078 114.504 151.881C114.064 151.68 113.716 151.384 113.458 150.994C113.204 150.604 113.077 150.123 113.077 149.551C113.077 149.059 113.168 148.652 113.35 148.33C113.532 148.008 113.78 147.75 114.094 147.557C114.409 147.364 114.763 147.218 115.157 147.119C115.555 147.017 115.966 146.943 116.39 146.898C116.901 146.845 117.316 146.797 117.634 146.756C117.952 146.71 118.183 146.642 118.327 146.551C118.475 146.456 118.549 146.311 118.549 146.114V146.08C118.549 145.652 118.422 145.32 118.168 145.085C117.915 144.85 117.549 144.733 117.072 144.733C116.568 144.733 116.168 144.843 115.873 145.062C115.581 145.282 115.384 145.542 115.282 145.841L113.362 145.568C113.513 145.038 113.763 144.595 114.112 144.239C114.46 143.879 114.886 143.61 115.39 143.432C115.894 143.25 116.451 143.159 117.06 143.159C117.481 143.159 117.899 143.208 118.316 143.307C118.733 143.405 119.113 143.568 119.458 143.795C119.803 144.019 120.079 144.324 120.288 144.71C120.5 145.097 120.606 145.58 120.606 146.159V152H118.629V150.801H118.56C118.435 151.044 118.259 151.271 118.032 151.483C117.808 151.691 117.526 151.86 117.185 151.989C116.848 152.114 116.452 152.176 115.998 152.176ZM116.532 150.665C116.945 150.665 117.303 150.583 117.606 150.42C117.909 150.254 118.142 150.034 118.305 149.761C118.471 149.489 118.555 149.191 118.555 148.869V147.841C118.49 147.894 118.38 147.943 118.225 147.989C118.074 148.034 117.903 148.074 117.714 148.108C117.524 148.142 117.337 148.172 117.151 148.199C116.966 148.225 116.805 148.248 116.668 148.267C116.362 148.309 116.087 148.377 115.844 148.472C115.602 148.566 115.411 148.699 115.271 148.869C115.13 149.036 115.06 149.252 115.06 149.517C115.06 149.896 115.199 150.182 115.475 150.375C115.752 150.568 116.104 150.665 116.532 150.665ZM130.157 143.273L127.049 152H124.776L121.668 143.273H123.862L125.867 149.756H125.958L127.969 143.273H130.157ZM135.147 152.17C134.272 152.17 133.516 151.989 132.88 151.625C132.247 151.258 131.761 150.739 131.42 150.068C131.079 149.394 130.908 148.6 130.908 147.688C130.908 146.79 131.079 146.002 131.42 145.324C131.764 144.642 132.246 144.112 132.863 143.733C133.48 143.35 134.206 143.159 135.039 143.159C135.577 143.159 136.085 143.246 136.562 143.42C137.043 143.591 137.467 143.856 137.835 144.216C138.206 144.576 138.497 145.034 138.71 145.591C138.922 146.144 139.028 146.803 139.028 147.568V148.199H131.874V146.812H137.056C137.052 146.419 136.967 146.068 136.8 145.761C136.634 145.451 136.401 145.206 136.102 145.028C135.806 144.85 135.461 144.761 135.067 144.761C134.647 144.761 134.278 144.864 133.96 145.068C133.641 145.269 133.393 145.534 133.215 145.864C133.041 146.189 132.952 146.547 132.948 146.938V148.148C132.948 148.655 133.041 149.091 133.227 149.455C133.412 149.814 133.672 150.091 134.005 150.284C134.338 150.473 134.728 150.568 135.175 150.568C135.475 150.568 135.746 150.527 135.988 150.443C136.23 150.356 136.441 150.229 136.619 150.062C136.797 149.896 136.931 149.689 137.022 149.443L138.942 149.659C138.821 150.167 138.59 150.61 138.249 150.989C137.912 151.364 137.48 151.655 136.954 151.864C136.427 152.068 135.825 152.17 135.147 152.17ZM146.793 146.886V152H144.737V143.273H146.702V144.756H146.805C147.005 144.267 147.326 143.879 147.765 143.591C148.208 143.303 148.755 143.159 149.407 143.159C150.009 143.159 150.534 143.288 150.981 143.545C151.432 143.803 151.78 144.176 152.026 144.665C152.276 145.153 152.399 145.746 152.396 146.443V152H150.339V146.761C150.339 146.178 150.187 145.722 149.884 145.392C149.585 145.062 149.17 144.898 148.64 144.898C148.28 144.898 147.96 144.977 147.68 145.136C147.403 145.292 147.185 145.517 147.026 145.812C146.871 146.108 146.793 146.466 146.793 146.886ZM158.293 152.17C157.441 152.17 156.702 151.983 156.077 151.608C155.452 151.233 154.968 150.708 154.623 150.034C154.282 149.36 154.112 148.572 154.112 147.67C154.112 146.769 154.282 145.979 154.623 145.301C154.968 144.623 155.452 144.097 156.077 143.722C156.702 143.347 157.441 143.159 158.293 143.159C159.146 143.159 159.884 143.347 160.509 143.722C161.134 144.097 161.617 144.623 161.958 145.301C162.303 145.979 162.475 146.769 162.475 147.67C162.475 148.572 162.303 149.36 161.958 150.034C161.617 150.708 161.134 151.233 160.509 151.608C159.884 151.983 159.146 152.17 158.293 152.17ZM158.305 150.523C158.767 150.523 159.153 150.396 159.464 150.142C159.774 149.884 160.005 149.54 160.157 149.108C160.312 148.676 160.39 148.195 160.39 147.665C160.39 147.131 160.312 146.648 160.157 146.216C160.005 145.78 159.774 145.434 159.464 145.176C159.153 144.919 158.767 144.79 158.305 144.79C157.831 144.79 157.437 144.919 157.123 145.176C156.812 145.434 156.579 145.78 156.424 146.216C156.272 146.648 156.197 147.131 156.197 147.665C156.197 148.195 156.272 148.676 156.424 149.108C156.579 149.54 156.812 149.884 157.123 150.142C157.437 150.396 157.831 150.523 158.305 150.523ZM173.752 148.33V143.273H175.809V152H173.815V150.449H173.724C173.527 150.937 173.203 151.337 172.752 151.648C172.305 151.958 171.754 152.114 171.099 152.114C170.527 152.114 170.021 151.987 169.582 151.733C169.146 151.475 168.805 151.102 168.559 150.614C168.313 150.121 168.19 149.527 168.19 148.83V143.273H170.246V148.511C170.246 149.064 170.398 149.504 170.701 149.83C171.004 150.155 171.402 150.318 171.894 150.318C172.197 150.318 172.491 150.244 172.775 150.097C173.059 149.949 173.292 149.729 173.474 149.438C173.659 149.142 173.752 148.773 173.752 148.33ZM177.924 155.273V143.273H179.947V144.716H180.066C180.172 144.504 180.322 144.278 180.515 144.04C180.708 143.797 180.969 143.591 181.299 143.42C181.629 143.246 182.049 143.159 182.56 143.159C183.235 143.159 183.843 143.331 184.384 143.676C184.93 144.017 185.362 144.523 185.68 145.193C186.002 145.86 186.163 146.678 186.163 147.648C186.163 148.606 186.005 149.42 185.691 150.091C185.377 150.761 184.949 151.273 184.407 151.625C183.865 151.977 183.252 152.153 182.566 152.153C182.066 152.153 181.651 152.07 181.322 151.903C180.992 151.737 180.727 151.536 180.526 151.301C180.329 151.062 180.176 150.837 180.066 150.625H179.981V155.273H177.924ZM179.941 147.636C179.941 148.201 180.021 148.695 180.18 149.119C180.343 149.544 180.576 149.875 180.879 150.114C181.185 150.348 181.557 150.466 181.992 150.466C182.447 150.466 182.827 150.345 183.134 150.102C183.441 149.856 183.672 149.521 183.827 149.097C183.987 148.669 184.066 148.182 184.066 147.636C184.066 147.095 183.988 146.614 183.833 146.193C183.678 145.773 183.447 145.443 183.14 145.205C182.833 144.966 182.451 144.847 181.992 144.847C181.553 144.847 181.18 144.962 180.873 145.193C180.566 145.424 180.333 145.748 180.174 146.165C180.019 146.581 179.941 147.072 179.941 147.636ZM191.731 152.17C190.86 152.17 190.112 151.979 189.487 151.597C188.865 151.214 188.386 150.686 188.049 150.011C187.716 149.333 187.549 148.553 187.549 147.67C187.549 146.784 187.719 146.002 188.06 145.324C188.401 144.642 188.882 144.112 189.504 143.733C190.129 143.35 190.867 143.159 191.719 143.159C192.428 143.159 193.055 143.29 193.6 143.551C194.149 143.809 194.587 144.174 194.913 144.648C195.238 145.117 195.424 145.667 195.469 146.295H193.504C193.424 145.875 193.235 145.525 192.935 145.244C192.64 144.96 192.244 144.818 191.748 144.818C191.327 144.818 190.958 144.932 190.64 145.159C190.322 145.383 190.074 145.705 189.896 146.125C189.721 146.545 189.634 147.049 189.634 147.636C189.634 148.231 189.721 148.742 189.896 149.17C190.07 149.595 190.314 149.922 190.629 150.153C190.947 150.381 191.32 150.494 191.748 150.494C192.051 150.494 192.322 150.437 192.56 150.324C192.803 150.206 193.005 150.038 193.168 149.818C193.331 149.598 193.443 149.331 193.504 149.017H195.469C195.42 149.634 195.238 150.182 194.924 150.659C194.61 151.133 194.182 151.504 193.64 151.773C193.098 152.038 192.462 152.17 191.731 152.17ZM200.965 152.17C200.113 152.17 199.374 151.983 198.749 151.608C198.124 151.233 197.639 150.708 197.295 150.034C196.954 149.36 196.783 148.572 196.783 147.67C196.783 146.769 196.954 145.979 197.295 145.301C197.639 144.623 198.124 144.097 198.749 143.722C199.374 143.347 200.113 143.159 200.965 143.159C201.817 143.159 202.556 143.347 203.181 143.722C203.806 144.097 204.289 144.623 204.63 145.301C204.975 145.979 205.147 146.769 205.147 147.67C205.147 148.572 204.975 149.36 204.63 150.034C204.289 150.708 203.806 151.233 203.181 151.608C202.556 151.983 201.817 152.17 200.965 152.17ZM200.977 150.523C201.439 150.523 201.825 150.396 202.136 150.142C202.446 149.884 202.677 149.54 202.829 149.108C202.984 148.676 203.062 148.195 203.062 147.665C203.062 147.131 202.984 146.648 202.829 146.216C202.677 145.78 202.446 145.434 202.136 145.176C201.825 144.919 201.439 144.79 200.977 144.79C200.503 144.79 200.109 144.919 199.795 145.176C199.484 145.434 199.251 145.78 199.096 146.216C198.944 146.648 198.869 147.131 198.869 147.665C198.869 148.195 198.944 148.676 199.096 149.108C199.251 149.54 199.484 149.884 199.795 150.142C200.109 150.396 200.503 150.523 200.977 150.523ZM206.893 152V143.273H208.859V144.756H208.961C209.143 144.256 209.444 143.866 209.864 143.585C210.285 143.301 210.787 143.159 211.37 143.159C211.961 143.159 212.459 143.303 212.864 143.591C213.273 143.875 213.561 144.263 213.728 144.756H213.819C214.012 144.271 214.338 143.884 214.796 143.597C215.258 143.305 215.806 143.159 216.438 143.159C217.241 143.159 217.897 143.413 218.404 143.92C218.912 144.428 219.165 145.169 219.165 146.142V152H217.103V146.46C217.103 145.919 216.959 145.523 216.671 145.273C216.383 145.019 216.031 144.892 215.614 144.892C215.118 144.892 214.73 145.047 214.45 145.358C214.173 145.665 214.035 146.064 214.035 146.557V152H212.018V146.375C212.018 145.924 211.881 145.564 211.609 145.295C211.34 145.027 210.987 144.892 210.552 144.892C210.256 144.892 209.987 144.968 209.745 145.119C209.503 145.267 209.309 145.477 209.165 145.75C209.022 146.019 208.95 146.333 208.95 146.693V152H206.893ZM221.252 152V143.273H223.309V152H221.252ZM222.286 142.034C221.96 142.034 221.68 141.926 221.445 141.71C221.21 141.491 221.093 141.227 221.093 140.92C221.093 140.61 221.21 140.347 221.445 140.131C221.68 139.911 221.96 139.801 222.286 139.801C222.616 139.801 222.896 139.911 223.127 140.131C223.362 140.347 223.479 140.61 223.479 140.92C223.479 141.227 223.362 141.491 223.127 141.71C222.896 141.926 222.616 142.034 222.286 142.034ZM227.481 146.886V152H225.424V143.273H227.39V144.756H227.492C227.693 144.267 228.013 143.879 228.452 143.591C228.896 143.303 229.443 143.159 230.094 143.159C230.697 143.159 231.221 143.288 231.668 143.545C232.119 143.803 232.468 144.176 232.714 144.665C232.964 145.153 233.087 145.746 233.083 146.443V152H231.026V146.761C231.026 146.178 230.875 145.722 230.572 145.392C230.272 145.062 229.858 144.898 229.327 144.898C228.968 144.898 228.647 144.977 228.367 145.136C228.091 145.292 227.873 145.517 227.714 145.812C227.558 146.108 227.481 146.466 227.481 146.886ZM238.969 155.455C238.231 155.455 237.596 155.354 237.066 155.153C236.536 154.956 236.11 154.691 235.788 154.358C235.466 154.025 235.242 153.655 235.117 153.25L236.969 152.801C237.053 152.972 237.174 153.14 237.333 153.307C237.492 153.477 237.706 153.617 237.975 153.727C238.248 153.841 238.591 153.898 239.004 153.898C239.587 153.898 240.07 153.756 240.452 153.472C240.835 153.191 241.026 152.729 241.026 152.085V150.432H240.924C240.818 150.644 240.663 150.862 240.458 151.085C240.257 151.309 239.99 151.496 239.657 151.648C239.327 151.799 238.913 151.875 238.413 151.875C237.742 151.875 237.134 151.718 236.589 151.403C236.047 151.085 235.615 150.612 235.293 149.983C234.975 149.35 234.816 148.559 234.816 147.608C234.816 146.65 234.975 145.841 235.293 145.182C235.615 144.519 236.049 144.017 236.594 143.676C237.14 143.331 237.748 143.159 238.418 143.159C238.93 143.159 239.35 143.246 239.68 143.42C240.013 143.591 240.278 143.797 240.475 144.04C240.672 144.278 240.822 144.504 240.924 144.716H241.038V143.273H243.066V152.142C243.066 152.888 242.888 153.506 242.532 153.994C242.176 154.483 241.689 154.848 241.072 155.091C240.454 155.333 239.754 155.455 238.969 155.455ZM238.987 150.261C239.422 150.261 239.793 150.155 240.1 149.943C240.407 149.731 240.64 149.426 240.799 149.028C240.958 148.631 241.038 148.153 241.038 147.597C241.038 147.047 240.958 146.566 240.799 146.153C240.644 145.741 240.413 145.42 240.106 145.193C239.803 144.962 239.43 144.847 238.987 144.847C238.528 144.847 238.146 144.966 237.839 145.205C237.532 145.443 237.301 145.771 237.146 146.188C236.99 146.6 236.913 147.07 236.913 147.597C236.913 148.131 236.99 148.598 237.146 149C237.305 149.398 237.538 149.708 237.844 149.932C238.155 150.152 238.536 150.261 238.987 150.261ZM253.501 143.273V144.864H248.484V143.273H253.501ZM249.722 141.182H251.779V149.375C251.779 149.652 251.821 149.864 251.904 150.011C251.991 150.155 252.105 150.254 252.245 150.307C252.385 150.36 252.54 150.386 252.711 150.386C252.84 150.386 252.957 150.377 253.063 150.358C253.173 150.339 253.256 150.322 253.313 150.307L253.66 151.915C253.55 151.953 253.393 151.994 253.188 152.04C252.987 152.085 252.741 152.112 252.45 152.119C251.934 152.134 251.47 152.057 251.058 151.886C250.645 151.712 250.317 151.443 250.075 151.08C249.836 150.716 249.719 150.261 249.722 149.716V141.182ZM255.221 152V143.273H257.215V144.727H257.306C257.465 144.223 257.738 143.835 258.124 143.562C258.514 143.286 258.96 143.148 259.46 143.148C259.573 143.148 259.7 143.153 259.84 143.165C259.984 143.172 260.103 143.186 260.198 143.205V145.097C260.111 145.066 259.973 145.04 259.783 145.017C259.598 144.991 259.418 144.977 259.244 144.977C258.869 144.977 258.531 145.059 258.232 145.222C257.937 145.381 257.704 145.602 257.533 145.886C257.363 146.17 257.278 146.498 257.278 146.869V152H255.221ZM261.565 152V143.273H263.621V152H261.565ZM262.599 142.034C262.273 142.034 261.993 141.926 261.758 141.71C261.523 141.491 261.406 141.227 261.406 140.92C261.406 140.61 261.523 140.347 261.758 140.131C261.993 139.911 262.273 139.801 262.599 139.801C262.928 139.801 263.209 139.911 263.44 140.131C263.674 140.347 263.792 140.61 263.792 140.92C263.792 141.227 263.674 141.491 263.44 141.71C263.209 141.926 262.928 142.034 262.599 142.034ZM265.737 155.273V143.273H267.759V144.716H267.879C267.985 144.504 268.134 144.278 268.327 144.04C268.521 143.797 268.782 143.591 269.112 143.42C269.441 143.246 269.862 143.159 270.373 143.159C271.047 143.159 271.655 143.331 272.197 143.676C272.742 144.017 273.174 144.523 273.492 145.193C273.814 145.86 273.975 146.678 273.975 147.648C273.975 148.606 273.818 149.42 273.504 150.091C273.189 150.761 272.761 151.273 272.219 151.625C271.678 151.977 271.064 152.153 270.379 152.153C269.879 152.153 269.464 152.07 269.134 151.903C268.805 151.737 268.54 151.536 268.339 151.301C268.142 151.062 267.988 150.837 267.879 150.625H267.793V155.273H265.737ZM267.754 147.636C267.754 148.201 267.833 148.695 267.992 149.119C268.155 149.544 268.388 149.875 268.691 150.114C268.998 150.348 269.369 150.466 269.805 150.466C270.259 150.466 270.64 150.345 270.947 150.102C271.254 149.856 271.485 149.521 271.64 149.097C271.799 148.669 271.879 148.182 271.879 147.636C271.879 147.095 271.801 146.614 271.646 146.193C271.49 145.773 271.259 145.443 270.952 145.205C270.646 144.966 270.263 144.847 269.805 144.847C269.365 144.847 268.992 144.962 268.685 145.193C268.379 145.424 268.146 145.748 267.987 146.165C267.831 146.581 267.754 147.072 267.754 147.636ZM282.634 145.58L280.759 145.784C280.706 145.595 280.613 145.417 280.481 145.25C280.352 145.083 280.178 144.949 279.958 144.847C279.738 144.744 279.469 144.693 279.151 144.693C278.723 144.693 278.363 144.786 278.072 144.972C277.784 145.157 277.642 145.398 277.646 145.693C277.642 145.947 277.735 146.153 277.924 146.312C278.117 146.472 278.435 146.602 278.879 146.705L280.367 147.023C281.193 147.201 281.807 147.483 282.208 147.869C282.613 148.256 282.818 148.761 282.822 149.386C282.818 149.936 282.657 150.42 282.339 150.841C282.024 151.258 281.587 151.583 281.026 151.818C280.466 152.053 279.822 152.17 279.094 152.17C278.026 152.17 277.166 151.947 276.515 151.5C275.863 151.049 275.475 150.422 275.35 149.619L277.356 149.426C277.447 149.82 277.64 150.117 277.935 150.318C278.231 150.519 278.615 150.619 279.089 150.619C279.577 150.619 279.969 150.519 280.265 150.318C280.564 150.117 280.714 149.869 280.714 149.574C280.714 149.324 280.617 149.117 280.424 148.955C280.235 148.792 279.939 148.667 279.538 148.58L278.049 148.267C277.212 148.093 276.593 147.799 276.191 147.386C275.79 146.97 275.591 146.443 275.594 145.807C275.591 145.269 275.737 144.803 276.032 144.409C276.331 144.011 276.746 143.705 277.276 143.489C277.81 143.269 278.426 143.159 279.123 143.159C280.146 143.159 280.951 143.377 281.538 143.812C282.129 144.248 282.494 144.837 282.634 145.58Z" fill="#101828"/>
<path d="M15.5715 177H14.2789L18.0175 166.818H19.2902L23.0289 177H21.7362L18.6936 168.429H18.6141L15.5715 177ZM16.0487 173.023H21.259V174.116H16.0487V173.023ZM25.629 172.406V177H24.4557V169.364H25.5892V170.557H25.6887C25.8676 170.169 26.1394 169.857 26.504 169.622C26.8686 169.384 27.3392 169.264 27.9159 169.264C28.433 169.264 28.8854 169.37 29.2732 169.582C29.661 169.791 29.9626 170.109 30.178 170.537C30.3934 170.961 30.5012 171.498 30.5012 172.148V177H29.3279V172.227C29.3279 171.627 29.1721 171.16 28.8605 170.825C28.549 170.487 28.1214 170.318 27.5779 170.318C27.2033 170.318 26.8686 170.399 26.5736 170.562C26.2819 170.724 26.0516 170.961 25.8825 171.273C25.7135 171.584 25.629 171.962 25.629 172.406ZM33.1274 179.864C32.9285 179.864 32.7512 179.847 32.5954 179.814C32.4397 179.784 32.3319 179.754 32.2723 179.724L32.5706 178.69C32.8556 178.763 33.1075 178.79 33.3263 178.77C33.545 178.75 33.7389 178.652 33.9079 178.477C34.0803 178.304 34.2377 178.024 34.3802 177.636L34.599 177.04L31.7751 169.364H33.0479L35.1558 175.449H35.2354L37.3433 169.364H38.616L35.3746 178.114C35.2287 178.508 35.0481 178.835 34.8327 179.093C34.6172 179.355 34.367 179.549 34.0819 179.675C33.8002 179.801 33.482 179.864 33.1274 179.864ZM44.1022 177V169.364H45.2357V170.517H45.3153C45.4545 170.139 45.7064 169.833 46.0709 169.597C46.4355 169.362 46.8465 169.244 47.3039 169.244C47.3901 169.244 47.4978 169.246 47.627 169.249C47.7563 169.253 47.8541 169.258 47.9204 169.264V170.457C47.8806 170.447 47.7894 170.433 47.6469 170.413C47.5077 170.389 47.3602 170.378 47.2045 170.378C46.8332 170.378 46.5018 170.456 46.2101 170.612C45.9218 170.764 45.6931 170.976 45.5241 171.248C45.3583 171.516 45.2755 171.823 45.2755 172.168V177H44.1022ZM49.3112 177V169.364H50.4845V177H49.3112ZM49.9078 168.091C49.6791 168.091 49.4819 168.013 49.3161 167.857C49.1537 167.701 49.0725 167.514 49.0725 167.295C49.0725 167.077 49.1537 166.889 49.3161 166.734C49.4819 166.578 49.6791 166.5 49.9078 166.5C50.1365 166.5 50.332 166.578 50.4944 166.734C50.6601 166.889 50.743 167.077 50.743 167.295C50.743 167.514 50.6601 167.701 50.4944 167.857C50.332 168.013 50.1365 168.091 49.9078 168.091ZM55.517 177.159C54.8806 177.159 54.3188 176.998 53.8316 176.677C53.3444 176.352 52.9632 175.895 52.6881 175.305C52.413 174.711 52.2755 174.01 52.2755 173.202C52.2755 172.4 52.413 171.704 52.6881 171.114C52.9632 170.524 53.346 170.068 53.8366 169.746C54.3271 169.425 54.8939 169.264 55.5368 169.264C56.034 169.264 56.4268 169.347 56.7151 169.513C57.0068 169.675 57.2288 169.861 57.3813 170.07C57.5371 170.275 57.6581 170.444 57.7442 170.577H57.8437V166.818H59.017V177H57.8834V175.827H57.7442C57.6581 175.966 57.5354 176.142 57.3763 176.354C57.2172 176.562 56.9902 176.75 56.6952 176.915C56.4002 177.078 56.0075 177.159 55.517 177.159ZM55.676 176.105C56.1467 176.105 56.5444 175.982 56.8692 175.737C57.194 175.489 57.441 175.146 57.61 174.708C57.779 174.267 57.8635 173.759 57.8635 173.182C57.8635 172.612 57.7807 172.113 57.615 171.685C57.4492 171.254 57.204 170.92 56.8792 170.681C56.5544 170.439 56.1533 170.318 55.676 170.318C55.1789 170.318 54.7646 170.446 54.4331 170.701C54.105 170.953 53.8581 171.296 53.6924 171.73C53.53 172.161 53.4488 172.645 53.4488 173.182C53.4488 173.725 53.5316 174.219 53.6974 174.663C53.8664 175.104 54.115 175.455 54.4431 175.717C54.7745 175.976 55.1855 176.105 55.676 176.105ZM64.5305 177.159C63.7947 177.159 63.1599 176.997 62.6263 176.672C62.096 176.344 61.6867 175.886 61.3983 175.3C61.1133 174.71 60.9708 174.024 60.9708 173.241C60.9708 172.459 61.1133 171.77 61.3983 171.173C61.6867 170.573 62.0877 170.106 62.6015 169.771C63.1185 169.433 63.7217 169.264 64.4111 169.264C64.8089 169.264 65.2016 169.33 65.5894 169.463C65.9772 169.596 66.3302 169.811 66.6483 170.109C66.9665 170.404 67.2201 170.795 67.409 171.283C67.5979 171.77 67.6924 172.37 67.6924 173.082V173.58H61.806V172.565H66.4992C66.4992 172.134 66.413 171.75 66.2407 171.412C66.0716 171.074 65.8297 170.807 65.5148 170.612C65.2033 170.416 64.8354 170.318 64.4111 170.318C63.9438 170.318 63.5394 170.434 63.1981 170.666C62.86 170.895 62.5998 171.193 62.4175 171.561C62.2352 171.929 62.1441 172.323 62.1441 172.744V173.42C62.1441 173.997 62.2435 174.486 62.4424 174.887C62.6446 175.285 62.9246 175.588 63.2826 175.797C63.6405 176.002 64.0565 176.105 64.5305 176.105C64.8387 176.105 65.1171 176.062 65.3657 175.976C65.6176 175.886 65.8347 175.754 66.017 175.578C66.1992 175.399 66.3401 175.177 66.4395 174.912L67.5731 175.23C67.4537 175.615 67.2532 175.953 66.9715 176.244C66.6898 176.533 66.3418 176.758 65.9275 176.92C65.5132 177.08 65.0475 177.159 64.5305 177.159ZM78.8238 171.074L77.7698 171.372C77.7035 171.196 77.6057 171.026 77.4765 170.86C77.3505 170.691 77.1782 170.552 76.9594 170.442C76.7407 170.333 76.4606 170.278 76.1192 170.278C75.6519 170.278 75.2625 170.386 74.9509 170.602C74.6427 170.814 74.4885 171.084 74.4885 171.412C74.4885 171.704 74.5946 171.934 74.8067 172.103C75.0189 172.272 75.3503 172.413 75.801 172.526L76.9346 172.804C77.6173 172.97 78.1261 173.223 78.4608 173.565C78.7956 173.903 78.963 174.339 78.963 174.872C78.963 175.31 78.837 175.701 78.5851 176.045C78.3366 176.39 77.9885 176.662 77.5411 176.861C77.0937 177.06 76.5733 177.159 75.98 177.159C75.2011 177.159 74.5565 176.99 74.0461 176.652C73.5357 176.314 73.2125 175.82 73.0766 175.17L74.1903 174.892C74.2963 175.303 74.4968 175.611 74.7918 175.817C75.0901 176.022 75.4796 176.125 75.9601 176.125C76.507 176.125 76.9412 176.009 77.2627 175.777C77.5875 175.542 77.7499 175.26 77.7499 174.932C77.7499 174.667 77.6571 174.445 77.4715 174.266C77.2859 174.083 77.0009 173.947 76.6164 173.858L75.3437 173.56C74.6443 173.394 74.1306 173.137 73.8025 172.789C73.4777 172.438 73.3153 171.999 73.3153 171.472C73.3153 171.041 73.4362 170.66 73.6782 170.328C73.9234 169.997 74.2565 169.737 74.6775 169.548C75.1017 169.359 75.5823 169.264 76.1192 169.264C76.8749 169.264 77.4682 169.43 77.8991 169.761C78.3332 170.093 78.6415 170.53 78.8238 171.074ZM83.8314 177.159C83.1155 177.159 82.499 176.99 81.982 176.652C81.4649 176.314 81.0672 175.848 80.7888 175.255C80.5104 174.662 80.3712 173.984 80.3712 173.222C80.3712 172.446 80.5137 171.762 80.7987 171.168C81.0871 170.572 81.4881 170.106 82.0019 169.771C82.5189 169.433 83.1221 169.264 83.8115 169.264C84.3485 169.264 84.8324 169.364 85.2632 169.562C85.6941 169.761 86.0471 170.04 86.3222 170.398C86.5973 170.756 86.768 171.173 86.8343 171.651H85.661C85.5715 171.303 85.3726 170.994 85.0644 170.726C84.7594 170.454 84.3485 170.318 83.8314 170.318C83.374 170.318 82.973 170.437 82.6283 170.676C82.2869 170.911 82.0201 171.245 81.8279 171.675C81.6389 172.103 81.5445 172.605 81.5445 173.182C81.5445 173.772 81.6373 174.286 81.8229 174.723C82.0118 175.161 82.277 175.5 82.6183 175.742C82.963 175.984 83.3674 176.105 83.8314 176.105C84.1363 176.105 84.4131 176.052 84.6617 175.946C84.9102 175.84 85.1207 175.688 85.2931 175.489C85.4654 175.29 85.588 175.051 85.661 174.773H86.8343C86.768 175.223 86.6039 175.629 86.3421 175.991C86.0835 176.349 85.7405 176.634 85.3129 176.846C84.8887 177.055 84.3949 177.159 83.8314 177.159ZM89.7227 172.406V177H88.5494V166.818H89.7227V170.557H89.8222C90.0012 170.162 90.2696 169.849 90.6276 169.617C90.9888 169.382 91.4694 169.264 92.0693 169.264C92.5897 169.264 93.0454 169.369 93.4365 169.577C93.8276 169.783 94.1309 170.099 94.3463 170.527C94.5651 170.951 94.6744 171.491 94.6744 172.148V177H93.5012V172.227C93.5012 171.621 93.3437 171.152 93.0289 170.82C92.7173 170.486 92.2848 170.318 91.7313 170.318C91.3468 170.318 91.0021 170.399 90.6972 170.562C90.3956 170.724 90.1569 170.961 89.9813 171.273C89.8089 171.584 89.7227 171.962 89.7227 172.406ZM100.023 177.159C99.2868 177.159 98.6521 176.997 98.1185 176.672C97.5882 176.344 97.1789 175.886 96.8905 175.3C96.6055 174.71 96.463 174.024 96.463 173.241C96.463 172.459 96.6055 171.77 96.8905 171.173C97.1789 170.573 97.5799 170.106 98.0937 169.771C98.6107 169.433 99.2139 169.264 99.9033 169.264C100.301 169.264 100.694 169.33 101.082 169.463C101.469 169.596 101.822 169.811 102.141 170.109C102.459 170.404 102.712 170.795 102.901 171.283C103.09 171.77 103.185 172.37 103.185 173.082V173.58H97.2982V172.565H101.991C101.991 172.134 101.905 171.75 101.733 171.412C101.564 171.074 101.322 170.807 101.007 170.612C100.695 170.416 100.328 170.318 99.9033 170.318C99.436 170.318 99.0316 170.434 98.6903 170.666C98.3522 170.895 98.092 171.193 97.9097 171.561C97.7274 171.929 97.6363 172.323 97.6363 172.744V173.42C97.6363 173.997 97.7357 174.486 97.9346 174.887C98.1367 175.285 98.4168 175.588 98.7748 175.797C99.1327 176.002 99.5487 176.105 100.023 176.105C100.331 176.105 100.609 176.062 100.858 175.976C101.11 175.886 101.327 175.754 101.509 175.578C101.691 175.399 101.832 175.177 101.932 174.912L103.065 175.23C102.946 175.615 102.745 175.953 102.464 176.244C102.182 176.533 101.834 176.758 101.42 176.92C101.005 177.08 100.54 177.159 100.023 177.159ZM107.853 177.159C107.217 177.159 106.655 176.998 106.168 176.677C105.68 176.352 105.299 175.895 105.024 175.305C104.749 174.711 104.611 174.01 104.611 173.202C104.611 172.4 104.749 171.704 105.024 171.114C105.299 170.524 105.682 170.068 106.172 169.746C106.663 169.425 107.23 169.264 107.873 169.264C108.37 169.264 108.763 169.347 109.051 169.513C109.343 169.675 109.565 169.861 109.717 170.07C109.873 170.275 109.994 170.444 110.08 170.577H110.18V166.818H111.353V177H110.219V175.827H110.08C109.994 175.966 109.871 176.142 109.712 176.354C109.553 176.562 109.326 176.75 109.031 176.915C108.736 177.078 108.343 177.159 107.853 177.159ZM108.012 176.105C108.483 176.105 108.88 175.982 109.205 175.737C109.53 175.489 109.777 175.146 109.946 174.708C110.115 174.267 110.199 173.759 110.199 173.182C110.199 172.612 110.117 172.113 109.951 171.685C109.785 171.254 109.54 170.92 109.215 170.681C108.89 170.439 108.489 170.318 108.012 170.318C107.515 170.318 107.101 170.446 106.769 170.701C106.441 170.953 106.194 171.296 106.028 171.73C105.866 172.161 105.785 172.645 105.785 173.182C105.785 173.725 105.868 174.219 106.033 174.663C106.202 175.104 106.451 175.455 106.779 175.717C107.11 175.976 107.521 176.105 108.012 176.105ZM118.477 173.878V169.364H119.65V177H118.477V175.707H118.398C118.219 176.095 117.94 176.425 117.562 176.697C117.185 176.965 116.707 177.099 116.131 177.099C115.653 177.099 115.229 176.995 114.858 176.786C114.487 176.574 114.195 176.256 113.983 175.832C113.771 175.404 113.665 174.866 113.665 174.216V169.364H114.838V174.136C114.838 174.693 114.994 175.137 115.305 175.469C115.62 175.8 116.021 175.966 116.508 175.966C116.8 175.966 117.097 175.891 117.398 175.742C117.703 175.593 117.958 175.364 118.164 175.056C118.373 174.748 118.477 174.355 118.477 173.878ZM122.973 166.818V177H121.799V166.818H122.973ZM128.323 177.159C127.588 177.159 126.953 176.997 126.419 176.672C125.889 176.344 125.48 175.886 125.191 175.3C124.906 174.71 124.764 174.024 124.764 173.241C124.764 172.459 124.906 171.77 125.191 171.173C125.48 170.573 125.881 170.106 126.394 169.771C126.911 169.433 127.515 169.264 128.204 169.264C128.602 169.264 128.995 169.33 129.382 169.463C129.77 169.596 130.123 169.811 130.441 170.109C130.759 170.404 131.013 170.795 131.202 171.283C131.391 171.77 131.485 172.37 131.485 173.082V173.58H125.599V172.565H130.292C130.292 172.134 130.206 171.75 130.034 171.412C129.865 171.074 129.623 170.807 129.308 170.612C128.996 170.416 128.628 170.318 128.204 170.318C127.737 170.318 127.332 170.434 126.991 170.666C126.653 170.895 126.393 171.193 126.21 171.561C126.028 171.929 125.937 172.323 125.937 172.744V173.42C125.937 173.997 126.036 174.486 126.235 174.887C126.438 175.285 126.718 175.588 127.076 175.797C127.434 176.002 127.849 176.105 128.323 176.105C128.632 176.105 128.91 176.062 129.159 175.976C129.411 175.886 129.628 175.754 129.81 175.578C129.992 175.399 130.133 175.177 130.233 174.912L131.366 175.23C131.247 175.615 131.046 175.953 130.764 176.244C130.483 176.533 130.135 176.758 129.72 176.92C129.306 177.08 128.84 177.159 128.323 177.159ZM136.154 177.159C135.517 177.159 134.956 176.998 134.468 176.677C133.981 176.352 133.6 175.895 133.325 175.305C133.05 174.711 132.912 174.01 132.912 173.202C132.912 172.4 133.05 171.704 133.325 171.114C133.6 170.524 133.983 170.068 134.473 169.746C134.964 169.425 135.531 169.264 136.174 169.264C136.671 169.264 137.063 169.347 137.352 169.513C137.643 169.675 137.866 169.861 138.018 170.07C138.174 170.275 138.295 170.444 138.381 170.577H138.48V166.818H139.654V177H138.52V175.827H138.381C138.295 175.966 138.172 176.142 138.013 176.354C137.854 176.562 137.627 176.75 137.332 176.915C137.037 177.078 136.644 177.159 136.154 177.159ZM136.313 176.105C136.783 176.105 137.181 175.982 137.506 175.737C137.831 175.489 138.078 175.146 138.247 174.708C138.416 174.267 138.5 173.759 138.5 173.182C138.5 172.612 138.417 172.113 138.252 171.685C138.086 171.254 137.841 170.92 137.516 170.681C137.191 170.439 136.79 170.318 136.313 170.318C135.816 170.318 135.401 170.446 135.07 170.701C134.742 170.953 134.495 171.296 134.329 171.73C134.167 172.161 134.085 172.645 134.085 173.182C134.085 173.725 134.168 174.219 134.334 174.663C134.503 175.104 134.752 175.455 135.08 175.717C135.411 175.976 135.822 176.105 136.313 176.105ZM148.15 177.179C147.666 177.179 147.227 177.088 146.833 176.906C146.438 176.72 146.125 176.453 145.893 176.105C145.661 175.754 145.545 175.33 145.545 174.832C145.545 174.395 145.631 174.04 145.804 173.768C145.976 173.493 146.206 173.278 146.495 173.122C146.783 172.966 147.101 172.85 147.449 172.774C147.8 172.695 148.153 172.632 148.508 172.585C148.972 172.526 149.348 172.481 149.637 172.451C149.928 172.418 150.14 172.363 150.273 172.287C150.409 172.211 150.477 172.078 150.477 171.889V171.849C150.477 171.359 150.343 170.978 150.074 170.706C149.809 170.434 149.406 170.298 148.866 170.298C148.306 170.298 147.867 170.421 147.549 170.666C147.23 170.911 147.007 171.173 146.877 171.452L145.764 171.054C145.963 170.59 146.228 170.229 146.559 169.97C146.894 169.708 147.259 169.526 147.653 169.423C148.051 169.317 148.442 169.264 148.826 169.264C149.072 169.264 149.353 169.294 149.671 169.354C149.993 169.41 150.303 169.528 150.601 169.707C150.903 169.886 151.153 170.156 151.352 170.517C151.551 170.878 151.65 171.362 151.65 171.969V177H150.477V175.966H150.417C150.338 176.132 150.205 176.309 150.019 176.498C149.834 176.687 149.587 176.848 149.279 176.98C148.97 177.113 148.594 177.179 148.15 177.179ZM148.329 176.125C148.793 176.125 149.184 176.034 149.502 175.852C149.824 175.669 150.066 175.434 150.228 175.146C150.394 174.857 150.477 174.554 150.477 174.236V173.162C150.427 173.222 150.318 173.276 150.149 173.326C149.983 173.372 149.791 173.414 149.572 173.45C149.357 173.483 149.146 173.513 148.941 173.54C148.738 173.563 148.574 173.583 148.448 173.599C148.143 173.639 147.858 173.704 147.593 173.793C147.331 173.879 147.119 174.01 146.957 174.186C146.798 174.358 146.718 174.594 146.718 174.892C146.718 175.3 146.869 175.608 147.171 175.817C147.476 176.022 147.862 176.125 148.329 176.125ZM154.965 172.406V177H153.792V166.818H154.965V170.557H155.064C155.243 170.162 155.512 169.849 155.87 169.617C156.231 169.382 156.712 169.264 157.312 169.264C157.832 169.264 158.288 169.369 158.679 169.577C159.07 169.783 159.373 170.099 159.589 170.527C159.807 170.951 159.917 171.491 159.917 172.148V177H158.743V172.227C158.743 171.621 158.586 171.152 158.271 170.82C157.959 170.486 157.527 170.318 156.973 170.318C156.589 170.318 156.244 170.399 155.939 170.562C155.638 170.724 155.399 170.961 155.223 171.273C155.051 171.584 154.965 171.962 154.965 172.406ZM165.265 177.159C164.529 177.159 163.894 176.997 163.361 176.672C162.83 176.344 162.421 175.886 162.133 175.3C161.848 174.71 161.705 174.024 161.705 173.241C161.705 172.459 161.848 171.77 162.133 171.173C162.421 170.573 162.822 170.106 163.336 169.771C163.853 169.433 164.456 169.264 165.146 169.264C165.543 169.264 165.936 169.33 166.324 169.463C166.712 169.596 167.065 169.811 167.383 170.109C167.701 170.404 167.954 170.795 168.143 171.283C168.332 171.77 168.427 172.37 168.427 173.082V173.58H162.54V172.565H167.234C167.234 172.134 167.147 171.75 166.975 171.412C166.806 171.074 166.564 170.807 166.249 170.612C165.938 170.416 165.57 170.318 165.146 170.318C164.678 170.318 164.274 170.434 163.932 170.666C163.594 170.895 163.334 171.193 163.152 171.561C162.97 171.929 162.878 172.323 162.878 172.744V173.42C162.878 173.997 162.978 174.486 163.177 174.887C163.379 175.285 163.659 175.588 164.017 175.797C164.375 176.002 164.791 176.105 165.265 176.105C165.573 176.105 165.851 176.062 166.1 175.976C166.352 175.886 166.569 175.754 166.751 175.578C166.934 175.399 167.074 175.177 167.174 174.912L168.307 175.23C168.188 175.615 167.988 175.953 167.706 176.244C167.424 176.533 167.076 176.758 166.662 176.92C166.248 177.08 165.782 177.159 165.265 177.159ZM172.459 177.179C171.975 177.179 171.536 177.088 171.141 176.906C170.747 176.72 170.434 176.453 170.202 176.105C169.97 175.754 169.854 175.33 169.854 174.832C169.854 174.395 169.94 174.04 170.112 173.768C170.284 173.493 170.515 173.278 170.803 173.122C171.092 172.966 171.41 172.85 171.758 172.774C172.109 172.695 172.462 172.632 172.817 172.585C173.281 172.526 173.657 172.481 173.945 172.451C174.237 172.418 174.449 172.363 174.582 172.287C174.717 172.211 174.785 172.078 174.785 171.889V171.849C174.785 171.359 174.651 170.978 174.383 170.706C174.118 170.434 173.715 170.298 173.175 170.298C172.614 170.298 172.175 170.421 171.857 170.666C171.539 170.911 171.315 171.173 171.186 171.452L170.072 171.054C170.271 170.59 170.536 170.229 170.868 169.97C171.203 169.708 171.567 169.526 171.962 169.423C172.359 169.317 172.75 169.264 173.135 169.264C173.38 169.264 173.662 169.294 173.98 169.354C174.302 169.41 174.611 169.528 174.91 169.707C175.211 169.886 175.462 170.156 175.66 170.517C175.859 170.878 175.959 171.362 175.959 171.969V177H174.785V175.966H174.726C174.646 176.132 174.514 176.309 174.328 176.498C174.142 176.687 173.896 176.848 173.587 176.98C173.279 177.113 172.903 177.179 172.459 177.179ZM172.638 176.125C173.102 176.125 173.493 176.034 173.811 175.852C174.132 175.669 174.374 175.434 174.537 175.146C174.703 174.857 174.785 174.554 174.785 174.236V173.162C174.736 173.222 174.626 173.276 174.457 173.326C174.292 173.372 174.099 173.414 173.881 173.45C173.665 173.483 173.455 173.513 173.249 173.54C173.047 173.563 172.883 173.583 172.757 173.599C172.452 173.639 172.167 173.704 171.902 173.793C171.64 173.879 171.428 174.01 171.266 174.186C171.106 174.358 171.027 174.594 171.027 174.892C171.027 175.3 171.178 175.608 171.479 175.817C171.784 176.022 172.17 176.125 172.638 176.125ZM180.984 177.159C180.347 177.159 179.786 176.998 179.298 176.677C178.811 176.352 178.43 175.895 178.155 175.305C177.88 174.711 177.742 174.01 177.742 173.202C177.742 172.4 177.88 171.704 178.155 171.114C178.43 170.524 178.813 170.068 179.303 169.746C179.794 169.425 180.361 169.264 181.004 169.264C181.501 169.264 181.894 169.347 182.182 169.513C182.474 169.675 182.696 169.861 182.848 170.07C183.004 170.275 183.125 170.444 183.211 170.577H183.31V166.818H184.484V177H183.35V175.827H183.211C183.125 175.966 183.002 176.142 182.843 176.354C182.684 176.562 182.457 176.75 182.162 176.915C181.867 177.078 181.474 177.159 180.984 177.159ZM181.143 176.105C181.613 176.105 182.011 175.982 182.336 175.737C182.661 175.489 182.908 175.146 183.077 174.708C183.246 174.267 183.33 173.759 183.33 173.182C183.33 172.612 183.247 172.113 183.082 171.685C182.916 171.254 182.671 170.92 182.346 170.681C182.021 170.439 181.62 170.318 181.143 170.318C180.646 170.318 180.231 170.446 179.9 170.701C179.572 170.953 179.325 171.296 179.159 171.73C178.997 172.161 178.916 172.645 178.916 173.182C178.916 173.725 178.998 174.219 179.164 174.663C179.333 175.104 179.582 175.455 179.91 175.717C180.241 175.976 180.652 176.105 181.143 176.105ZM193.835 177.159C193.146 177.159 192.541 176.995 192.021 176.667C191.504 176.339 191.099 175.88 190.808 175.29C190.519 174.7 190.375 174.01 190.375 173.222C190.375 172.426 190.519 171.732 190.808 171.138C191.099 170.545 191.504 170.085 192.021 169.756C192.541 169.428 193.146 169.264 193.835 169.264C194.525 169.264 195.128 169.428 195.645 169.756C196.165 170.085 196.57 170.545 196.858 171.138C197.15 171.732 197.296 172.426 197.296 173.222C197.296 174.01 197.15 174.7 196.858 175.29C196.57 175.88 196.165 176.339 195.645 176.667C195.128 176.995 194.525 177.159 193.835 177.159ZM193.835 176.105C194.359 176.105 194.79 175.971 195.128 175.702C195.466 175.434 195.716 175.081 195.879 174.643C196.041 174.206 196.122 173.732 196.122 173.222C196.122 172.711 196.041 172.236 195.879 171.795C195.716 171.354 195.466 170.998 195.128 170.726C194.79 170.454 194.359 170.318 193.835 170.318C193.312 170.318 192.881 170.454 192.543 170.726C192.205 170.998 191.954 171.354 191.792 171.795C191.63 172.236 191.548 172.711 191.548 173.222C191.548 173.732 191.63 174.206 191.792 174.643C191.954 175.081 192.205 175.434 192.543 175.702C192.881 175.971 193.312 176.105 193.835 176.105ZM202.487 169.364V170.358H198.371V169.364H202.487ZM199.604 177V168.31C199.604 167.872 199.706 167.508 199.912 167.216C200.117 166.924 200.384 166.705 200.712 166.56C201.04 166.414 201.387 166.341 201.751 166.341C202.04 166.341 202.275 166.364 202.457 166.411C202.64 166.457 202.775 166.5 202.865 166.54L202.527 167.554C202.467 167.534 202.384 167.509 202.278 167.479C202.176 167.45 202.04 167.435 201.871 167.435C201.483 167.435 201.203 167.532 201.03 167.728C200.861 167.924 200.777 168.21 200.777 168.588V177H199.604ZM211.39 169.364V170.358H207.433V169.364H211.39ZM208.586 167.534H209.759V174.812C209.759 175.144 209.807 175.393 209.903 175.558C210.003 175.721 210.129 175.83 210.281 175.886C210.437 175.939 210.601 175.966 210.774 175.966C210.903 175.966 211.009 175.959 211.092 175.946C211.175 175.929 211.241 175.916 211.291 175.906L211.529 176.96C211.45 176.99 211.339 177.02 211.196 177.05C211.054 177.083 210.873 177.099 210.654 177.099C210.323 177.099 209.998 177.028 209.68 176.886C209.365 176.743 209.103 176.526 208.894 176.234C208.689 175.943 208.586 175.575 208.586 175.131V167.534ZM213.155 177V169.364H214.328V177H213.155ZM213.752 168.091C213.523 168.091 213.326 168.013 213.16 167.857C212.997 167.701 212.916 167.514 212.916 167.295C212.916 167.077 212.997 166.889 213.16 166.734C213.326 166.578 213.523 166.5 213.752 166.5C213.98 166.5 214.176 166.578 214.338 166.734C214.504 166.889 214.587 167.077 214.587 167.295C214.587 167.514 214.504 167.701 214.338 167.857C214.176 168.013 213.98 168.091 213.752 168.091ZM216.477 177V169.364H217.611V170.557H217.71C217.869 170.149 218.126 169.833 218.481 169.607C218.835 169.379 219.261 169.264 219.758 169.264C220.262 169.264 220.681 169.379 221.016 169.607C221.354 169.833 221.618 170.149 221.807 170.557H221.886C222.082 170.162 222.375 169.849 222.766 169.617C223.157 169.382 223.626 169.264 224.173 169.264C224.856 169.264 225.414 169.478 225.849 169.906C226.283 170.33 226.5 170.991 226.5 171.889V177H225.327V171.889C225.327 171.326 225.172 170.923 224.864 170.681C224.556 170.439 224.193 170.318 223.775 170.318C223.239 170.318 222.823 170.481 222.528 170.805C222.233 171.127 222.085 171.535 222.085 172.028V177H220.892V171.77C220.892 171.336 220.751 170.986 220.469 170.721C220.188 170.452 219.825 170.318 219.381 170.318C219.076 170.318 218.791 170.399 218.525 170.562C218.264 170.724 218.052 170.95 217.889 171.238C217.73 171.523 217.65 171.853 217.65 172.227V177H216.477ZM231.847 177.159C231.111 177.159 230.476 176.997 229.943 176.672C229.412 176.344 229.003 175.886 228.715 175.3C228.43 174.71 228.287 174.024 228.287 173.241C228.287 172.459 228.43 171.77 228.715 171.173C229.003 170.573 229.404 170.106 229.918 169.771C230.435 169.433 231.038 169.264 231.728 169.264C232.125 169.264 232.518 169.33 232.906 169.463C233.294 169.596 233.647 169.811 233.965 170.109C234.283 170.404 234.536 170.795 234.725 171.283C234.914 171.77 235.009 172.37 235.009 173.082V173.58H229.122V172.565H233.816C233.816 172.134 233.729 171.75 233.557 171.412C233.388 171.074 233.146 170.807 232.831 170.612C232.52 170.416 232.152 170.318 231.728 170.318C231.26 170.318 230.856 170.434 230.514 170.666C230.176 170.895 229.916 171.193 229.734 171.561C229.552 171.929 229.46 172.323 229.46 172.744V173.42C229.46 173.997 229.56 174.486 229.759 174.887C229.961 175.285 230.241 175.588 230.599 175.797C230.957 176.002 231.373 176.105 231.847 176.105C232.155 176.105 232.434 176.062 232.682 175.976C232.934 175.886 233.151 175.754 233.333 175.578C233.516 175.399 233.657 175.177 233.756 174.912L234.889 175.23C234.77 175.615 234.57 175.953 234.288 176.244C234.006 176.533 233.658 176.758 233.244 176.92C232.83 177.08 232.364 177.159 231.847 177.159ZM242.461 177L240.134 169.364H241.367L243.018 175.21H243.098L244.728 169.364H245.981L247.592 175.19H247.671L249.322 169.364H250.555L248.228 177H247.075L245.404 171.134H245.285L243.615 177H242.461ZM252.106 177V169.364H253.279V177H252.106ZM252.703 168.091C252.474 168.091 252.277 168.013 252.111 167.857C251.949 167.701 251.867 167.514 251.867 167.295C251.867 167.077 251.949 166.889 252.111 166.734C252.277 166.578 252.474 166.5 252.703 166.5C252.931 166.5 253.127 166.578 253.289 166.734C253.455 166.889 253.538 167.077 253.538 167.295C253.538 167.514 253.455 167.701 253.289 167.857C253.127 168.013 252.931 168.091 252.703 168.091ZM256.602 166.818V177H255.428V166.818H256.602ZM259.924 166.818V177H258.751V166.818H259.924ZM268.258 177.179C267.774 177.179 267.334 177.088 266.94 176.906C266.546 176.72 266.232 176.453 266 176.105C265.768 175.754 265.652 175.33 265.652 174.832C265.652 174.395 265.739 174.04 265.911 173.768C266.083 173.493 266.314 173.278 266.602 173.122C266.89 172.966 267.209 172.85 267.557 172.774C267.908 172.695 268.261 172.632 268.616 172.585C269.08 172.526 269.456 172.481 269.744 172.451C270.036 172.418 270.248 172.363 270.38 172.287C270.516 172.211 270.584 172.078 270.584 171.889V171.849C270.584 171.359 270.45 170.978 270.182 170.706C269.916 170.434 269.514 170.298 268.973 170.298C268.413 170.298 267.974 170.421 267.656 170.666C267.338 170.911 267.114 171.173 266.985 171.452L265.871 171.054C266.07 170.59 266.335 170.229 266.667 169.97C267.001 169.708 267.366 169.526 267.76 169.423C268.158 169.317 268.549 169.264 268.934 169.264C269.179 169.264 269.461 169.294 269.779 169.354C270.1 169.41 270.41 169.528 270.709 169.707C271.01 169.886 271.26 170.156 271.459 170.517C271.658 170.878 271.758 171.362 271.758 171.969V177H270.584V175.966H270.525C270.445 176.132 270.312 176.309 270.127 176.498C269.941 176.687 269.694 176.848 269.386 176.98C269.078 177.113 268.702 177.179 268.258 177.179ZM268.437 176.125C268.901 176.125 269.292 176.034 269.61 175.852C269.931 175.669 270.173 175.434 270.336 175.146C270.501 174.857 270.584 174.554 270.584 174.236V173.162C270.535 173.222 270.425 173.276 270.256 173.326C270.09 173.372 269.898 173.414 269.679 173.45C269.464 173.483 269.254 173.513 269.048 173.54C268.846 173.563 268.682 173.583 268.556 173.599C268.251 173.639 267.966 173.704 267.701 173.793C267.439 173.879 267.227 174.01 267.064 174.186C266.905 174.358 266.826 174.594 266.826 174.892C266.826 175.3 266.977 175.608 267.278 175.817C267.583 176.022 267.969 176.125 268.437 176.125ZM273.899 179.864V169.364H275.033V170.577H275.172C275.258 170.444 275.377 170.275 275.53 170.07C275.686 169.861 275.908 169.675 276.196 169.513C276.488 169.347 276.882 169.264 277.379 169.264C278.022 169.264 278.589 169.425 279.079 169.746C279.57 170.068 279.953 170.524 280.228 171.114C280.503 171.704 280.641 172.4 280.641 173.202C280.641 174.01 280.503 174.711 280.228 175.305C279.953 175.895 279.572 176.352 279.084 176.677C278.597 176.998 278.035 177.159 277.399 177.159C276.909 177.159 276.516 177.078 276.221 176.915C275.926 176.75 275.699 176.562 275.54 176.354C275.381 176.142 275.258 175.966 275.172 175.827H275.072V179.864H273.899ZM275.052 173.182C275.052 173.759 275.137 174.267 275.306 174.708C275.475 175.146 275.722 175.489 276.047 175.737C276.372 175.982 276.769 176.105 277.24 176.105C277.73 176.105 278.14 175.976 278.468 175.717C278.799 175.455 279.048 175.104 279.214 174.663C279.383 174.219 279.467 173.725 279.467 173.182C279.467 172.645 279.384 172.161 279.219 171.73C279.056 171.296 278.809 170.953 278.478 170.701C278.15 170.446 277.737 170.318 277.24 170.318C276.763 170.318 276.362 170.439 276.037 170.681C275.712 170.92 275.467 171.254 275.301 171.685C275.135 172.113 275.052 172.612 275.052 173.182ZM282.43 179.864V169.364H283.564V170.577H283.703C283.789 170.444 283.909 170.275 284.061 170.07C284.217 169.861 284.439 169.675 284.727 169.513C285.019 169.347 285.413 169.264 285.91 169.264C286.553 169.264 287.12 169.425 287.611 169.746C288.101 170.068 288.484 170.524 288.759 171.114C289.034 171.704 289.172 172.4 289.172 173.202C289.172 174.01 289.034 174.711 288.759 175.305C288.484 175.895 288.103 176.352 287.616 176.677C287.128 176.998 286.567 177.159 285.93 177.159C285.44 177.159 285.047 177.078 284.752 176.915C284.457 176.75 284.23 176.562 284.071 176.354C283.912 176.142 283.789 175.966 283.703 175.827H283.604V179.864H282.43ZM283.584 173.182C283.584 173.759 283.668 174.267 283.837 174.708C284.006 175.146 284.253 175.489 284.578 175.737C284.903 175.982 285.301 176.105 285.771 176.105C286.262 176.105 286.671 175.976 286.999 175.717C287.331 175.455 287.579 175.104 287.745 174.663C287.914 174.219 287.998 173.725 287.998 173.182C287.998 172.645 287.916 172.161 287.75 171.73C287.588 171.296 287.341 170.953 287.009 170.701C286.681 170.446 286.268 170.318 285.771 170.318C285.294 170.318 284.893 170.439 284.568 170.681C284.243 170.92 283.998 171.254 283.832 171.685C283.667 172.113 283.584 172.612 283.584 173.182ZM294.163 177.159C293.427 177.159 292.793 176.997 292.259 176.672C291.729 176.344 291.32 175.886 291.031 175.3C290.746 174.71 290.604 174.024 290.604 173.241C290.604 172.459 290.746 171.77 291.031 171.173C291.32 170.573 291.721 170.106 292.234 169.771C292.751 169.433 293.355 169.264 294.044 169.264C294.442 169.264 294.834 169.33 295.222 169.463C295.61 169.596 295.963 169.811 296.281 170.109C296.599 170.404 296.853 170.795 297.042 171.283C297.231 171.77 297.325 172.37 297.325 173.082V173.58H291.439V172.565H296.132C296.132 172.134 296.046 171.75 295.873 171.412C295.704 171.074 295.463 170.807 295.148 170.612C294.836 170.416 294.468 170.318 294.044 170.318C293.577 170.318 293.172 170.434 292.831 170.666C292.493 170.895 292.233 171.193 292.05 171.561C291.868 171.929 291.777 172.323 291.777 172.744V173.42C291.777 173.997 291.876 174.486 292.075 174.887C292.277 175.285 292.557 175.588 292.915 175.797C293.273 176.002 293.689 176.105 294.163 176.105C294.472 176.105 294.75 176.062 294.998 175.976C295.25 175.886 295.467 175.754 295.65 175.578C295.832 175.399 295.973 175.177 296.072 174.912L297.206 175.23C297.087 175.615 296.886 175.953 296.604 176.244C296.323 176.533 295.975 176.758 295.56 176.92C295.146 177.08 294.68 177.159 294.163 177.159ZM301.357 177.179C300.873 177.179 300.434 177.088 300.04 176.906C299.645 176.72 299.332 176.453 299.1 176.105C298.868 175.754 298.752 175.33 298.752 174.832C298.752 174.395 298.838 174.04 299.011 173.768C299.183 173.493 299.413 173.278 299.702 173.122C299.99 172.966 300.308 172.85 300.656 172.774C301.007 172.695 301.36 172.632 301.715 172.585C302.179 172.526 302.555 172.481 302.844 172.451C303.135 172.418 303.347 172.363 303.48 172.287C303.616 172.211 303.684 172.078 303.684 171.889V171.849C303.684 171.359 303.55 170.978 303.281 170.706C303.016 170.434 302.613 170.298 302.073 170.298C301.513 170.298 301.074 170.421 300.756 170.666C300.437 170.911 300.214 171.173 300.084 171.452L298.971 171.054C299.17 170.59 299.435 170.229 299.766 169.97C300.101 169.708 300.466 169.526 300.86 169.423C301.258 169.317 301.649 169.264 302.033 169.264C302.279 169.264 302.56 169.294 302.878 169.354C303.2 169.41 303.51 169.528 303.808 169.707C304.11 169.886 304.36 170.156 304.559 170.517C304.758 170.878 304.857 171.362 304.857 171.969V177H303.684V175.966H303.624C303.545 176.132 303.412 176.309 303.226 176.498C303.041 176.687 302.794 176.848 302.486 176.98C302.177 177.113 301.801 177.179 301.357 177.179ZM301.536 176.125C302 176.125 302.391 176.034 302.709 175.852C303.031 175.669 303.273 175.434 303.435 175.146C303.601 174.857 303.684 174.554 303.684 174.236V173.162C303.634 173.222 303.525 173.276 303.356 173.326C303.19 173.372 302.998 173.414 302.779 173.45C302.564 173.483 302.353 173.513 302.148 173.54C301.945 173.563 301.781 173.583 301.655 173.599C301.351 173.639 301.065 173.704 300.8 173.793C300.539 173.879 300.326 174.01 300.164 174.186C300.005 174.358 299.925 174.594 299.925 174.892C299.925 175.3 300.076 175.608 300.378 175.817C300.683 176.022 301.069 176.125 301.536 176.125ZM306.999 177V169.364H308.132V170.517H308.212C308.351 170.139 308.603 169.833 308.967 169.597C309.332 169.362 309.743 169.244 310.2 169.244C310.287 169.244 310.394 169.246 310.524 169.249C310.653 169.253 310.751 169.258 310.817 169.264V170.457C310.777 170.447 310.686 170.433 310.543 170.413C310.404 170.389 310.257 170.378 310.101 170.378C309.73 170.378 309.398 170.456 309.107 170.612C308.818 170.764 308.59 170.976 308.421 171.248C308.255 171.516 308.172 171.823 308.172 172.168V177H306.999ZM316.901 179.864C316.702 179.864 316.525 179.847 316.369 179.814C316.213 179.784 316.105 179.754 316.046 179.724L316.344 178.69C316.629 178.763 316.881 178.79 317.1 178.77C317.318 178.75 317.512 178.652 317.681 178.477C317.854 178.304 318.011 178.024 318.154 177.636L318.372 177.04L315.549 169.364H316.821L318.929 175.449H319.009L321.117 169.364H322.389L319.148 178.114C319.002 178.508 318.822 178.835 318.606 179.093C318.391 179.355 318.14 179.549 317.855 179.675C317.574 179.801 317.255 179.864 316.901 179.864ZM326.767 177.159C326.078 177.159 325.473 176.995 324.952 176.667C324.435 176.339 324.031 175.88 323.739 175.29C323.451 174.7 323.307 174.01 323.307 173.222C323.307 172.426 323.451 171.732 323.739 171.138C324.031 170.545 324.435 170.085 324.952 169.756C325.473 169.428 326.078 169.264 326.767 169.264C327.456 169.264 328.06 169.428 328.577 169.756C329.097 170.085 329.501 170.545 329.79 171.138C330.081 171.732 330.227 172.426 330.227 173.222C330.227 174.01 330.081 174.7 329.79 175.29C329.501 175.88 329.097 176.339 328.577 176.667C328.06 176.995 327.456 177.159 326.767 177.159ZM326.767 176.105C327.291 176.105 327.722 175.971 328.06 175.702C328.398 175.434 328.648 175.081 328.81 174.643C328.973 174.206 329.054 173.732 329.054 173.222C329.054 172.711 328.973 172.236 328.81 171.795C328.648 171.354 328.398 170.998 328.06 170.726C327.722 170.454 327.291 170.318 326.767 170.318C326.243 170.318 325.812 170.454 325.474 170.726C325.136 170.998 324.886 171.354 324.724 171.795C324.561 172.236 324.48 172.711 324.48 173.222C324.48 173.732 324.561 174.206 324.724 174.643C324.886 175.081 325.136 175.434 325.474 175.702C325.812 175.971 326.243 176.105 326.767 176.105ZM336.831 173.878V169.364H338.004V177H336.831V175.707H336.751C336.572 176.095 336.294 176.425 335.916 176.697C335.538 176.965 335.061 177.099 334.484 177.099C334.007 177.099 333.583 176.995 333.211 176.786C332.84 176.574 332.549 176.256 332.336 175.832C332.124 175.404 332.018 174.866 332.018 174.216V169.364H333.191V174.136C333.191 174.693 333.347 175.137 333.659 175.469C333.974 175.8 334.375 175.966 334.862 175.966C335.154 175.966 335.45 175.891 335.752 175.742C336.057 175.593 336.312 175.364 336.517 175.056C336.726 174.748 336.831 174.355 336.831 173.878Z" fill="#667085"/>
<defs>
<filter id="filter0_dd_6134_10535" x="100.5" y="16" width="152" height="104" filterUnits="userSpaceOnUse" color-interpolation-filters="sRGB">
<feFlood flood-opacity="0" result="BackgroundImageFix"/>
<feColorMatrix in="SourceAlpha" type="matrix" values="0 0 0 0 0 0 0 0 0 0 0 0 0 0 0 0 0 0 127 0" result="hardAlpha"/>
<feMorphology radius="4" operator="erode" in="SourceAlpha" result="effect1_dropShadow_6134_10535"/>
<feOffset dy="8"/>
<feGaussianBlur stdDeviation="4"/>
<feColorMatrix type="matrix" values="0 0 0 0 0.0627451 0 0 0 0 0.0941176 0 0 0 0 0.156863 0 0 0 0.03 0"/>
<feBlend mode="normal" in2="BackgroundImageFix" result="effect1_dropShadow_6134_10535"/>
<feColorMatrix in="SourceAlpha" type="matrix" values="0 0 0 0 0 0 0 0 0 0 0 0 0 0 0 0 0 0 127 0" result="hardAlpha"/>
<feMorphology radius="4" operator="erode" in="SourceAlpha" result="effect2_dropShadow_6134_10535"/>
<feOffset dy="20"/>
<feGaussianBlur stdDeviation="12"/>
<feColorMatrix type="matrix" values="0 0 0 0 0.0627451 0 0 0 0 0.0941176 0 0 0 0 0.156863 0 0 0 0.08 0"/>
<feBlend mode="normal" in2="effect1_dropShadow_6134_10535" result="effect2_dropShadow_6134_10535"/>
<feBlend mode="normal" in="SourceGraphic" in2="effect2_dropShadow_6134_10535" result="shape"/>
</filter>
<filter id="filter1_b_6134_10535" x="144.5" y="54" width="64" height="64" filterUnits="userSpaceOnUse" color-interpolation-filters="sRGB">
<feFlood flood-opacity="0" result="BackgroundImageFix"/>
<feGaussianBlur in="BackgroundImageFix" stdDeviation="4"/>
<feComposite in2="SourceAlpha" operator="in" result="effect1_backgroundBlur_6134_10535"/>
<feBlend mode="normal" in="SourceGraphic" in2="effect1_backgroundBlur_6134_10535" result="shape"/>
</filter>
<linearGradient id="paint0_linear_6134_10535" x1="126.443" y1="37.4857" x2="171.7" y2="79.9999" gradientUnits="userSpaceOnUse">
<stop stop-color="#D0D5DD"/>
<stop offset="0.350715" stop-color="white" stop-opacity="0"/>
</linearGradient>
<linearGradient id="paint1_linear_6134_10535" x1="153.529" y1="26.8571" x2="210.1" y2="80" gradientUnits="userSpaceOnUse">
<stop stop-color="#D0D5DD"/>
<stop offset="0.350715" stop-color="white" stop-opacity="0"/>
</linearGradient>
<linearGradient id="paint2_linear_6134_10535" x1="192.9" y1="42.8" x2="232.5" y2="80" gradientUnits="userSpaceOnUse">
<stop stop-color="#D0D5DD"/>
<stop offset="0.350715" stop-color="white" stop-opacity="0"/>
</linearGradient>
</defs>
</svg>
