<svg width="27" height="23" viewBox="0 0 27 23" fill="none" xmlns="http://www.w3.org/2000/svg">
<path d="M26.6031 9.09238C26.5875 9.02007 26.5646 8.94953 26.5348 8.88184L23.9522 2.85527C23.3567 1.46279 21.9082 0.5625 20.2601 0.5625H6.73995C5.09317 0.5625 3.64327 1.46279 3.04854 2.85527L0.463192 8.88184C0.404436 9.01778 0.374413 9.1644 0.375009 9.3125V21.3438C0.375009 21.6338 0.490243 21.912 0.695361 22.1171C0.900479 22.3223 1.17868 22.4375 1.46876 22.4375H3.65626C3.94634 22.4375 4.22454 22.3223 4.42966 22.1171C4.63477 21.912 4.75001 21.6338 4.75001 21.3438V20.25H22.25V21.3438C22.25 21.6338 22.3652 21.912 22.5704 22.1171C22.7755 22.3223 23.0537 22.4375 23.3438 22.4375H25.5313C25.8213 22.4375 26.0995 22.3223 26.3047 22.1171C26.5098 21.912 26.625 21.6338 26.625 21.3438V9.3125C26.6251 9.23858 26.6178 9.16484 26.6031 9.09238ZM5.84376 15.875C5.41111 15.875 4.98818 15.7467 4.62845 15.5063C4.26872 15.266 3.98834 14.9243 3.82277 14.5246C3.65721 14.1249 3.61389 13.6851 3.69829 13.2607C3.7827 12.8364 3.99104 12.4466 4.29696 12.1407C4.60289 11.8348 4.99267 11.6264 5.417 11.542C5.84133 11.4576 6.28117 11.5009 6.68088 11.6665C7.08059 11.8321 7.42223 12.1125 7.6626 12.4722C7.90296 12.8319 8.03126 13.2549 8.03126 13.6875C8.03126 14.2677 7.80079 14.8241 7.39055 15.2343C6.98032 15.6445 6.42392 15.875 5.84376 15.875ZM21.1563 15.875C20.7236 15.875 20.3007 15.7467 19.9409 15.5063C19.5812 15.266 19.3008 14.9243 19.1353 14.5246C18.9697 14.1249 18.9264 13.6851 19.0108 13.2607C19.0952 12.8364 19.3035 12.4466 19.6095 12.1407C19.9154 11.8348 20.3052 11.6264 20.7295 11.542C21.1538 11.4576 21.5937 11.5009 21.9934 11.6665C22.3931 11.8321 22.7347 12.1125 22.9751 12.4722C23.2155 12.8319 23.3438 13.2549 23.3438 13.6875C23.3438 14.2677 23.1133 14.8241 22.7031 15.2343C22.2928 15.6445 21.7364 15.875 21.1563 15.875ZM3.12716 8.21875L5.05694 3.71728C5.3044 3.13896 5.98048 2.75 6.73995 2.75H20.2601C21.0189 2.75 21.6956 3.13896 21.9431 3.71728L23.8729 8.21875H3.12716Z" fill="#9095A9"/>
</svg>
